<?xml version="1.0" encoding="UTF-8"?><svg id="Layer_1" xmlns="http://www.w3.org/2000/svg" viewBox="0 0 95.49 99.16"><defs><style>.cls-1{fill:#346456;}</style></defs><path class="cls-1" d="M48.43,74.99c2.05-7.31,5.5-14.44,11.01-21.19,5.06-6.2,12.48-12.34,25.4-15.26-6.76,2.04-12.36,4.81-16.29,8.05-2.78,2.29-4.72,4.8-6.47,7.33-4.12,5.95-7.24,12.09-9.36,18.35-1.07,3.16-1.88,6.35-2.42,9.57-.27,1.61-.48,3.22-.63,4.84-.07,.78-.12,1.55-.16,2.33-.03,.6,.54,2.06-.07,2.54-.02,.02-.11,.29-.13,.34-1.13-.09-2.27-.27-3.39-.42,.24-5.54,.99-11.06,2.51-16.49Z"/><path class="cls-1" d="M42.1,75.27c-1.27-7.48-4.62-14.54-8.71-22.23-2.89-5.42-9.94-18.15-16.57-21.89,2,2.66,7.64,9.65,9.58,13.28,1.7,3.17,2.9,5.74,4.35,8.45,1.11,2.07,5.93,12.79,7.37,19.23,.73,3.26,1.2,6.52,1.4,9.77,.1,1.63,.14,3.25,.11,4.88-.01,.78-.04,1.56-.09,2.34-.03,.6-.76,1.99-.2,2.54,.02,.02,.08,.3,.1,.35,1.13,.03,2.29-.03,3.41-.06,.34-5.53,.18-11.1-.76-16.67Z"/><path class="cls-1" d="M42.74,75.16c.82-7.55,3.05-15.15,7.37-22.72,3.97-6.95,10.28-14.23,22.55-19.26-6.33,3.13-11.4,6.79-14.75,10.64-2.36,2.72-3.86,5.51-5.17,8.3-3.08,6.55-5.16,13.12-6.21,19.65-.53,3.3-.8,6.58-.82,9.84,0,1.63,.05,3.26,.18,4.88,.06,.78,.14,1.55,.23,2.33,.07,.6,.87,1.94,.35,2.52-.02,.02-.06,.31-.08,.36-1.13,.1-2.28,.11-3.41,.15-.67-5.5-.85-11.07-.24-16.68Z"/><path class="cls-1" d="M38.86,69c-2.55-8-6.49-15.69-12.46-22.79-5.48-6.53-13.31-12.79-26.41-15.03,6.89,1.74,12.67,4.39,16.81,7.7,2.93,2.34,5.04,4.99,6.96,7.67,4.52,6.32,8.07,12.93,10.62,19.75,1.29,3.45,2.32,6.95,3.09,10.5,.39,1.77,.71,3.56,.96,5.36,.12,.86,.23,1.73,.32,2.59,.07,.67-.4,2.34,.24,2.83,.02,.02,.13,.32,.16,.37,1.12-.19,2.25-.48,3.35-.73-.63-6.16-1.76-12.28-3.66-18.22Z"/><path class="cls-1" d="M59.08,74.84c2.05-7.31,5.5-14.44,11.01-21.19,5.06-6.2,12.48-12.34,25.4-15.26-6.76,2.04-12.36,4.81-16.29,8.05-2.78,2.29-4.72,4.8-6.47,7.33-4.12,5.95-7.24,12.09-9.36,18.35-1.07,3.16-1.88,6.35-2.42,9.57-.27,1.61-.48,3.22-.63,4.84-.07,.78-.12,1.55-.16,2.33-.03,.6,.54,2.06-.07,2.54-.02,.02-.11,.29-.13,.34-1.13-.09-2.27-.27-3.39-.42,.24-5.54,.99-11.06,2.51-16.49Z"/><path class="cls-1" d="M52.75,75.12c-1.27-7.48-4.62-14.54-8.71-22.23-2.89-5.42-9.94-18.15-16.57-21.89,2,2.66,7.64,9.65,9.58,13.28,1.7,3.17,2.9,5.74,4.35,8.45,1.11,2.07,5.93,12.79,7.37,19.23,.73,3.26,1.2,6.52,1.4,9.77,.1,1.63,.14,3.25,.11,4.88-.01,.78-.04,1.56-.09,2.34-.03,.6-.76,1.99-.2,2.54,.02,.02,.08,.3,.1,.35,1.13,.03,2.29-.03,3.41-.06,.34-5.53,.18-11.1-.76-16.67Z"/><path class="cls-1" d="M53.39,75.01c.82-7.55,3.05-15.15,7.37-22.72,3.97-6.95,10.28-14.23,22.55-19.26-6.33,3.13-11.4,6.79-14.75,10.64-2.36,2.72-3.86,5.51-5.17,8.3-3.08,6.55-5.16,13.12-6.21,19.65-.53,3.3-.8,6.58-.82,9.84,0,1.63,.05,3.26,.18,4.88,.06,.78,.14,1.55,.23,2.33,.07,.6,.87,1.94,.35,2.52-.02,.02-.06,.31-.08,.36-1.13,.1-2.28,.11-3.41,.15-.67-5.5-.85-11.07-.24-16.68Z"/><path class="cls-1" d="M49.52,68.83c-2.55-8-6.49-15.69-12.46-22.79-5.48-6.53-13.31-12.79-26.41-15.03,6.89,1.74,12.67,4.39,16.81,7.7,2.93,2.34,5.04,4.99,6.96,7.67,4.52,6.32,8.07,12.93,10.62,19.75,1.29,3.45,2.32,6.95,3.09,10.5,.39,1.77,.71,3.56,.96,5.36,.12,.86,.23,1.73,.32,2.59,.07,.67-.4,2.34,.24,2.83,.02,.02,.13,.32,.16,.37,1.12-.19,2.25-.48,3.35-.73-.63-6.16-1.76-12.28-3.66-18.22Z"/><path class="cls-1" d="M41.6,73.41c-2.55-8-6.49-15.69-12.46-22.79-5.48-6.53-13.31-12.79-26.41-15.03,6.89,1.74,12.67,4.39,16.81,7.7,2.93,2.34,5.04,4.99,6.96,7.67,4.52,6.32,8.07,12.93,10.62,19.75,1.29,3.45,2.32,6.95,3.09,10.5,.39,1.77,.71,3.56,.96,5.36,.12,.86,.23,1.73,.32,2.59,.07,.67-.4,2.34,.24,2.83,.02,.02,.13,.32,.16,.37,1.12-.19,2.25-.48,3.35-.73-.63-6.16-1.76-12.28-3.66-18.22Z"/></svg>