<?xml version="1.0" encoding="UTF-8"?><svg id="Layer_1" xmlns="http://www.w3.org/2000/svg" viewBox="0 0 93.58 96.54"><defs><style>.cls-1{fill:#147f5e;}.cls-2{fill:#5db6a0;}.cls-3{fill:#507264;}</style></defs><g><path class="cls-1" d="M39.89,56.39c-.64-1.49-2.25-3.19-2.55-3.55-.42-.51-.75-2.34-.96-3.23-.29-1.23-.33-6.14-.27-8,.08-2.3,.2-3.5-.38-4.54-.96-1.71-1.64-2.24-4.96-3.09-2.38-.61-3.12-.23-3.65-2.52-.72-3.14-1.39-6.52-2.39-8.34-.9-1.64-2.09-2.36-6.55-3.41-1.17-.28-7.9-2.66-10-3.53C3.14,14.1,.68,10.44,.11,10.86c-1,.75,4.9,9.83,6.26,11.93,3.36,5.17,4.51,5.9,5.38,6.3,.95,.44,2.37,.86,3.12,2.23,.7,1.28,.03,1.96,.7,2.95,.9,1.33,2.48,.65,4.99,2.03,.85,.47,2.12,1.16,2.85,2.49,.61,1.1,.43,2.79,.06,6.13-.56,5.06-.62,5.51-.2,6.12,1.08,1.58,3.18,1,5.49,3.11,.53,.48,1.31,1.98,1.75,3.52,.74,2.58-.41,4.25,.33,6.14,.58,1.5,1.38,1.5,3.64,2.78,1.6,.91,3.37,2.17,4.25,1.51,.14-.1,.2-.23,.24-.3,2.62-4.88,1.89-8.73,1.89-8.73-.21-1.11-.14-.74-.98-2.7Z"/><path class="cls-3" d="M40.5,71.9c-3.05-10.59-6.95-20.9-12.05-30.6-4.69-8.92-10.85-17.69-19.72-21.65,4.76,2.82,8.97,6.73,12.23,11.36,2.3,3.27,4.13,6.88,5.85,10.53,4.03,8.57,7.49,17.44,10.33,26.51,1.44,4.58,2.71,9.21,3.83,13.88,.56,2.34,1.08,4.68,1.56,7.03,.23,1.13,.45,2.26,.66,3.39,.16,.87,.15,3.01,.65,3.7,.02,.03,.14,.43,.17,.49,.69-.15,1.37-.45,2.04-.68-1.48-8.05-3.29-16.08-5.55-23.96Z"/></g><g><path class="cls-1" d="M50.49,52.45c.74-1.44,2.48-3.01,2.8-3.35,.46-.48,.92-2.28,1.19-3.15,.38-1.2,.78-6.1,.85-7.96,.09-2.3,.06-3.5,.71-4.5,1.08-1.64,1.8-2.12,5.17-2.72,2.42-.44,3.13,0,3.82-2.24,.95-3.08,1.86-6.4,2.99-8.14,1.01-1.57,2.26-2.2,6.78-2.93,1.19-.19,8.08-2.07,10.24-2.79,5.19-1.71,7.92-5.18,8.45-4.72,.95,.82-5.6,9.44-7.12,11.44-3.73,4.91-4.93,5.56-5.83,5.89-.97,.37-2.43,.68-3.28,2-.79,1.23-.17,1.96-.92,2.89-1,1.26-2.52,.47-5.13,1.66-.88,.4-2.2,1-3.02,2.28-.69,1.06-.64,2.75-.51,6.11,.19,5.08,.22,5.54-.25,6.12-1.19,1.49-3.24,.76-5.7,2.7-.56,.44-1.45,1.88-2,3.38-.92,2.52,.1,4.27-.78,6.1-.69,1.45-1.49,1.4-3.83,2.51-1.66,.79-3.52,1.92-4.34,1.2-.13-.11-.19-.24-.22-.31-2.26-5.06-1.24-8.84-1.24-8.84,.29-1.09,.19-.73,1.17-2.62Z"/><path class="cls-3" d="M49.05,71.43c3.05-10.59,6.95-20.9,12.05-30.6,4.69-8.92,10.85-17.69,19.72-21.65-4.76,2.82-8.97,6.73-12.23,11.36-2.3,3.27-4.13,6.88-5.85,10.53-4.03,8.57-7.49,17.44-10.33,26.51-1.44,4.58-2.71,9.21-3.83,13.88-.56,2.34-1.08,4.68-1.56,7.03-.23,1.13-.45,2.26-.66,3.39-.16,.87-.15,3.01-.65,3.7-.02,.03-.14,.43-.17,.49-.69-.15-1.37-.45-2.04-.68,1.48-8.05,3.29-16.08,5.55-23.96Z"/></g><g><path class="cls-2" d="M45.15,75.88c0-3.19,4.75-1.63,6.65-5.32,2.19-4.25,3.19-3.73,3.99-9.85,.23-1.73-.02-3.6-.25-5.31-.34-2.41-1.74-4.24-2.33-6.54-.16-.64-.22-1.34,.06-1.94,.71-1.51,2.65-.51,3.86-1.12,2.68-1.34,4.29-4.41,3.94-7.36-.29-2.48-1.87-4.75-4.03-6.01-.27-.16-.55-.31-.75-.55-1.01-1.22,4.08-3.61,4.83-4.18,2.36-1.79,3.01-3.27,3.46-4.53,.96-2.66,.86-4.97,.8-6.65-.11-2.78-.65-3.14-.53-5.59,.03-.67,.18-2.7,1.06-5.06,1.4-3.73,3.67-5.65,3.46-5.86-.28-.28-3.47,3.96-9.05,7.19-5.07,2.93-7.19,3.73-9.32,5.32-1.08,.81-3.16,1.61-3.99,4.79-.24,.92-.8,4.26-.53,5.86,.38,2.28,.71,5.37,.27,6.39-.41,.94-1.03,.8-3.99,1.86-1.56,.56-3.47,1-4.54,2.37-1.02,1.3-1,3.15-.55,4.74,.49,1.74,1.26,3.44,1.9,5.13,.66,1.76,2.07,2.59,1.61,4.77-.32,1.49-1.36,2.71-2.44,3.79-1.48,1.48-3.35,3.09-3.69,5.28-.47,3.04,.36,6.05,1.73,8.75,.69,1.37,1.5,2.66,2.36,3.92,.78,1.15,1.28,2.54,2.65,3.11,.28,.12,.58,.2,.82,.39,.42,.32,.33,.9,.36,1.37,0,.15,.03,.3,.1,.43,.19,.34,2.09,.99,2.09,.39Z"/><path class="cls-3" d="M44.65,58.06c.97-10.33,2.83-20.56,5.99-30.44,2.9-9.08,7.27-18.29,15.22-23.55-4.14,3.46-7.52,7.82-9.84,12.69-1.64,3.44-2.74,7.1-3.73,10.78-2.32,8.64-4.02,17.46-5.08,26.34-.53,4.49-.91,9-1.11,13.51-.1,2.26-.17,4.52-.19,6.78-.01,1.08-.01,2.17,0,3.25,0,.84,.04,2.66,.06,3.54,.06,2.05-.53,8.3-.55,8.22-.71-.01-.89-.43-1.6-.53-.08-7.71,.1-22.91,.82-30.59Z"/></g></svg>