<?xml version="1.0" encoding="UTF-8"?><svg id="Layer_1" xmlns="http://www.w3.org/2000/svg" viewBox="0 0 1070 315.03"><defs><style>.cls-1{fill:#026b6f;}</style></defs><path class="cls-1" d="M0,19.66C0,.73,18.55,7.46,51.77,1.77c40.14-6.88,103,8.08,125.43,15.49,19.91,6.58,43.66,25.86,89.06,63.68,36.15,30.12,39.19,41.17,66.48,48.19,20.07,5.16,64.64,.78,107.87-5.16,48.95-6.73,50.53-4.55,82.79-5.16,7.6-.15,30.08-7.1,65.23,17.21,33.68,23.3,38.89,55.02,79.02,79.18,29.96,18.03,50.77,.51,57.7,0,17.16-1.27,23.13-.89,36.38,5.16,11.29,5.16,22.28,18.89,48.92,36.15,7.92,5.13,33.2,18.16,57.7,12.05,13.8-3.44,31.96-29.06,66.48-39.59,33.87-10.33,135.17-17.3,135.17-3.3v85l-239.28,4.36L1,309.66S0,40,0,19.66Z"/></svg>