<?xml version="1.0" encoding="UTF-8"?><svg id="Layer_1" xmlns="http://www.w3.org/2000/svg" viewBox="0 0 1963 614.01"><defs><style>.cls-1{fill:#279846;}</style></defs><path class="cls-1" d="M1946.55,8.83c-32.29-4.82-59.1-12.71-118.2-1.59-46.08,8.67-79.66,24.34-127.2,41.3-51.48,18.36-141.42,53.31-185.02,52.42-43.84-.9-106.64-38.12-185.02-33.36-19.39,1.18-54.98,9.38-146.47,46.07-135.29,54.24-145.25,56.57-197.86,74.66-41.12,14.14-151.7,43.78-212,44.48-42.02,.49-118.2-27-163.17-44.48-44.19-17.17-135.18-61.59-262.1-100.08-78.87-23.92-181.16-46.07-227.41-61.95C71.49,8.93,33.7,10.52,6.55,0L0,614.01l1960-2,3-597"/></svg>