<?xml version="1.0" encoding="UTF-8"?><svg id="Layer_1" xmlns="http://www.w3.org/2000/svg" viewBox="0 0 904 410"><defs><style>.cls-1{fill:#28ba98;}</style></defs><path class="cls-1" d="M.6,282.27c9.99-13.22,27.68-38.42,48.59-44.86,20.62-6.35,37.85-9.3,67.77-14.43,12.02-2.06,78.7-6.18,98.38-14.43,27.83-11.66,29.18-20.79,53.56-49.46,17.13-20.14,41.28-51.1,62.31-53.58,17.49-2.06,22.15,4.43,39.35-2.06,10.93-4.12,8.01-10.7,59.03-49.46,21.72-16.5,42.54-21,56.84-22.67,10.92-1.27,20.59,3.89,37.17,4.12,25.23,.35,40.14-10.69,50.28-14.43,23.67-8.73,23.88-13.77,39.35-18.55,32.2-9.94,54.5,11.5,103.35,38.68,10.85,6.04,8.27,5.18,14.21,8.24,50.76,26.18,88.11,6.85,106.53,.48,36.49-12.63,66.68-22.67,66.68-22.67V400.22S12.02,414.64,0,408.46"/></svg>