<?xml version="1.0" encoding="UTF-8"?><svg id="Layer_1" xmlns="http://www.w3.org/2000/svg" viewBox="0 0 1080 373.21"><defs><style>.cls-1{fill:#6bbea4;}</style></defs><path class="cls-1" d="M1.58,1.71C.01,.6,55.64-6.9,117.01,21.57c45.86,21.27,60.09,48.21,104.36,66.64,44.67,18.6,43.09-25.78,143.89-4.25,66.41,14.18,63.12,42.74,101.2,58.13,31.4,12.69,52.5,7.27,82.23,1.42,31.29-6.16,44.73-12.4,69.58-9.93,46.02,4.59,48.85,28.3,117.01,48.21,26.74,7.81,47.5,23.98,69.58,36.87,24.18,14.12,36.93,32.26,58.51,39.7,20.56,7.09,48.52-.17,110.69,11.34,38.55,7.14,90.25,27.77,105.94,58.13,0,0-20.56,45.37-20.56,45.37L0,359.03,1.58,1.71Z"/></svg>