<svg width="428" height="926" viewBox="0 0 428 926" fill="none" xmlns="http://www.w3.org/2000/svg">
<g id="iPhone 13 Pro Max - 1" clip-path="url(#clip0_3_257)">
<rect width="428" height="926" fill="url(#paint0_linear_3_257)"/>
<g id="sun">
<path id="Vector" d="M87 417C118.48 417 144 391.48 144 360C144 328.52 118.48 303 87 303C55.5198 303 30 328.52 30 360C30 391.48 55.5198 417 87 417Z" fill="url(#paint1_linear_3_257)"/>
</g>
<g id="mountain1">
<path id="Vector_2" d="M-151.205 333.873C-152 333.305 -123.776 329.487 -92.6366 343.981C-69.368 354.808 -62.1501 368.523 -39.6812 377.908C-17.015 387.373 -17.8148 364.785 33.3335 375.743C67.0292 382.962 65.3588 397.501 84.6843 405.339C100.619 411.8 111.324 409.041 126.408 406.062C142.281 402.927 149.104 399.747 161.713 401.008C185.063 403.344 186.5 415.417 221.087 425.55C234.652 429.524 245.19 437.758 256.392 444.32C268.661 451.509 275.13 460.743 286.079 464.531C296.511 468.138 310.699 464.441 342.243 470.304C361.801 473.941 388.036 484.441 395.998 499.9L385.566 523L-152 515.781L-151.195 333.873H-151.205Z" fill="url(#paint2_linear_3_257)"/>
</g>
<g id="mountain3">
<path id="Vector_3" d="M114 501.542C118.624 496.417 135.91 478.562 145.588 476.065C155.128 473.601 163.098 472.459 176.94 470.471C182.502 469.672 213.345 468.073 222.448 464.877C235.321 460.356 235.949 456.812 247.224 445.696C255.145 437.886 266.323 425.879 276.045 424.918C284.134 424.119 286.289 426.635 294.25 424.119C299.308 422.521 297.954 419.968 321.553 404.939C331.602 398.539 341.231 396.792 347.847 396.148C352.896 395.656 357.37 397.657 365.039 397.746C376.712 397.882 383.611 393.602 388.297 392.152C399.245 388.767 399.342 386.812 406.502 384.96C421.397 381.106 431.712 389.418 454.311 399.959C459.329 402.3 458.139 401.967 460.882 403.155C484.362 413.31 501.638 405.814 510.16 403.34C527.042 398.44 541.003 394.55 541.003 394.55V539.206C541.003 539.206 128.392 544.8 122.83 542.403" fill="url(#paint3_linear_3_257)"/>
</g>
<g id="mountain2">
<path id="Vector_4" d="M-139.995 414.627C-139.995 404.532 -114.108 402.98 -96.3036 399.941C-74.7953 396.272 -41.1089 404.25 -29.0861 408.201C-18.4176 411.71 -5.68823 421.992 18.6411 442.161C38.0136 458.224 39.6409 464.117 54.2652 467.861C65.0194 470.613 88.9098 468.277 112.072 465.109C138.307 461.52 139.158 461.84 156.438 462.357C165.313 462.624 172.556 458.571 191.393 471.535C209.438 483.961 212.237 500.877 233.74 513.761C249.794 523.377 260.944 514.033 264.659 513.761C273.855 513.084 277.057 513.287 284.155 516.513C290.203 519.265 296.097 526.587 310.368 535.792C314.613 538.527 328.161 545.476 341.287 542.218C348.679 540.383 358.417 526.72 376.911 521.105C395.406 515.489 430.687 520.188 447.49 519.27C458.319 518.678 450.852 564.248 450.852 564.248L321.122 567L-137.982 541.301C-137.982 541.301 -140 425.475 -140 414.627H-139.995Z" fill="url(#paint4_linear_3_257)"/>
</g>
<g id="mountain4">
<path id="Vector_5" d="M444.877 499.134C436.841 497.97 430.165 496.066 415.456 498.75C403.987 500.843 395.628 504.625 383.795 508.719C370.981 513.151 348.594 521.587 337.743 521.372C326.831 521.155 311.199 512.171 291.691 513.32C286.865 513.604 278.006 515.584 255.234 524.44C221.559 537.532 219.08 538.095 205.985 542.461C195.748 545.874 168.225 553.029 153.217 553.198C142.757 553.316 123.796 546.681 112.603 542.461C101.603 538.317 78.955 527.595 47.3635 518.304C27.7339 512.53 2.27125 507.184 -9.2405 503.351C-21.8363 499.156 -31.2446 499.539 -38 497V567H444.88V500.669" fill="url(#paint5_linear_3_257)"/>
</g>
<g id="field">
<path id="Vector_6" d="M548.996 679.892C491.438 707.658 331.016 742.286 228.058 746.762C123.805 751.297 -16.9383 708.185 -34.3545 702.489C-77.8329 688.273 -114.558 669.653 -140 655L-139.681 925.72L548.965 926L549 679.892H548.996Z" fill="#8CC76D"/>
<path id="Vector_7" opacity="0.8" d="M-5.68333 843.907C-2.48624 843.907 0.10552 841.835 0.10552 839.28C0.10552 836.724 -2.48624 834.652 -5.68333 834.652C-8.88042 834.652 -11.4722 836.724 -11.4722 839.28C-11.4722 841.835 -8.88042 843.907 -5.68333 843.907Z" fill="#F6DCC0"/>
<path id="Vector_8" opacity="0.8" d="M333.565 809.723C336.762 809.723 339.354 807.652 339.354 805.096C339.354 802.541 336.762 800.469 333.565 800.469C330.368 800.469 327.776 802.541 327.776 805.096C327.776 807.652 330.368 809.723 333.565 809.723Z" fill="#F6DCC0"/>
<path id="Vector_9" opacity="0.8" d="M5.62496 879.683C8.10941 879.683 10.1235 878.012 10.1235 875.951C10.1235 873.89 8.10941 872.219 5.62496 872.219C3.14051 872.219 1.12646 873.89 1.12646 875.951C1.12646 878.012 3.14051 879.683 5.62496 879.683Z" fill="#F6DCC0"/>
<path id="Rectangle 1" d="M-29 532C169.963 572.819 279.614 572.433 472 532V750H-29V532Z" fill="#8CC76D"/>
<path id="Vector_10" d="M211.581 929.705C219.164 914.495 230.234 895.018 234.847 886.382C237.442 881.524 247.011 858.684 251.355 844.843C255.164 832.701 258.74 828.476 257.437 805.822C255.486 771.904 241.269 769.175 238.755 765.542C235.279 760.506 193.915 730.864 158.817 720.225C129.465 711.328 108.695 699.075 100.602 661.06C99.2744 654.824 94.1624 634.882 96.6936 618.261C98.662 605.325 104.808 599.604 111.031 595.599C126.3 585.78 137.162 592.811 153.606 598.117C169.459 603.229 181.538 603.846 192.708 604.412C194.818 604.522 193.072 604.387 226.159 601.894C230.694 601.556 238.585 600.965 248.317 594.34C254.683 590.005 258.248 586.068 259.179 584.268C264.393 574.196 266.564 571.678 267.296 570.807C268.366 569.531 272.897 560.921 273.042 560.862C275.198 560 279.153 560 279.153 560C279.153 560 273.814 586.38 273.52 588.037C273.032 590.774 272.78 591.89 272.217 594.332C270.479 601.886 265.615 615.481 253.1 624.548C244.413 630.843 227.901 635.879 212.26 635.879C204.688 635.879 190.279 634.62 176.635 634.62C172.291 634.62 164.906 635.879 153.174 630.843C153.103 630.809 136.227 624.945 133.625 624.548C125.369 623.289 117.549 625.807 117.117 632.102C116.682 638.397 122.296 643.239 131.455 649.729C145.336 659.556 154.838 660.663 168.383 663.578C170.093 663.95 190.966 668.496 211.828 676.168C214.753 677.241 226.811 683.181 250.93 695.053C268.472 703.689 277.404 708.353 285.252 725.27C288.828 732.976 295.785 747.966 298.719 774.363C302.15 805.222 298.1 833.808 293.505 866.263C290.708 886.002 280.066 933 280.066 933C280.066 933 210.579 931.758 211.588 929.73L211.581 929.705Z" fill="url(#paint6_linear_3_257)"/>
</g>
<g id="circleflower2">
<path id="Vector_11" opacity="0.8" d="M382.377 790C394.735 790 404.754 781.941 404.754 772C404.754 762.059 394.735 754 382.377 754C370.018 754 360 762.059 360 772C360 781.941 370.018 790 382.377 790Z" fill="#F6DCC0"/>
<path id="Vector_12" opacity="0.8" d="M383.276 778.615C386.702 778.615 389.479 775.838 389.479 772.412C389.479 768.986 386.702 766.209 383.276 766.209C379.851 766.209 377.074 768.986 377.074 772.412C377.074 775.838 379.851 778.615 383.276 778.615Z" fill="#F95D15"/>
</g>
<g id="circleflower3">
<path id="Vector_13" opacity="0.8" d="M90.9985 818C103.7 818 113.997 809.717 113.997 799.5C113.997 789.283 103.7 781 90.9985 781C78.2968 781 68 789.283 68 799.5C68 809.717 78.2968 818 90.9985 818Z" fill="#F6DCC0"/>
<path id="Vector_14" opacity="0.8" d="M91.923 806.298C95.4439 806.298 98.2982 803.444 98.2982 799.923C98.2982 796.402 95.4439 793.548 91.923 793.548C88.4021 793.548 85.5479 796.402 85.5479 799.923C85.5479 803.444 88.4021 806.298 91.923 806.298Z" fill="#F95D15"/>
</g>
<g id="leaves4">
<g id="Group">
<path id="Vector_15" d="M392.158 892.879C391.484 891.573 389.908 890.139 389.617 889.833C389.201 889.4 388.783 887.76 388.534 886.972C388.19 885.879 387.828 881.432 387.76 879.742C387.675 877.655 387.711 876.558 387.111 875.653C386.131 874.166 385.471 873.729 382.411 873.179C380.217 872.781 379.568 873.179 378.94 871.138C378.073 868.341 377.246 865.323 376.221 863.74C375.298 862.317 374.165 861.738 370.062 861.082C368.979 860.908 362.725 859.197 360.762 858.551C356.041 856.993 353.567 853.844 353.084 854.259C352.225 855.005 358.178 862.842 359.552 864.653C362.938 869.114 364.035 869.704 364.851 870.009C365.739 870.343 367.059 870.627 367.829 871.826C368.546 872.941 367.989 873.605 368.66 874.457C369.565 875.603 370.953 874.886 373.321 875.965C374.123 876.331 375.315 876.874 376.068 878.035C376.689 878.997 376.647 880.537 376.533 883.583C376.359 888.204 376.334 888.616 376.757 889.141C377.839 890.501 379.703 889.833 381.939 891.598C382.447 891.999 383.256 893.305 383.756 894.672C384.594 896.961 383.671 898.548 384.463 900.212C385.091 901.529 385.815 901.483 387.945 902.495C389.453 903.212 391.143 904.241 391.892 903.581C392.009 903.478 392.062 903.365 392.091 903.297C394.142 898.697 393.223 895.261 393.223 895.261C392.957 894.267 393.046 894.601 392.158 892.883V892.879Z" fill="#147F5E"/>
<path id="Vector_16" d="M393.468 910.126C390.696 900.5 387.153 891.133 382.518 882.315C378.255 874.212 372.657 866.243 364.596 862.636C368.923 865.199 372.742 868.749 375.709 872.962C377.804 875.937 379.465 879.217 381.027 882.528C384.694 890.32 387.828 898.377 390.412 906.616C391.715 910.78 392.879 914.986 393.898 919.231C394.405 921.354 394.881 923.484 395.314 925.624C395.523 926.65 395.726 927.679 395.917 928.709C396.066 929.504 396.056 931.445 396.514 932.07C396.531 932.095 396.641 932.457 396.666 932.517C397.295 932.379 397.912 932.113 398.523 931.896C397.174 924.577 395.537 917.279 393.475 910.126H393.468Z" fill="#507264"/>
</g>
<g id="Group_2">
<path id="Vector_17" d="M400.723 893.362C401.398 892.055 402.974 890.621 403.265 890.316C403.68 889.883 404.099 888.243 404.347 887.455C404.692 886.362 405.054 881.914 405.121 880.225C405.207 878.138 405.171 877.041 405.771 876.136C406.751 874.648 407.411 874.212 410.471 873.661C412.664 873.264 413.314 873.661 413.942 871.62C414.808 868.823 415.635 865.806 416.661 864.223C417.584 862.8 418.716 862.221 422.82 861.564C423.902 861.391 430.157 859.68 432.12 859.034C436.84 857.475 439.315 854.327 439.797 854.742C440.656 855.488 434.704 863.325 433.33 865.135C429.944 869.597 428.847 870.186 428.03 870.492C427.143 870.825 425.823 871.109 425.052 872.309C424.335 873.424 424.893 874.087 424.222 874.939C423.317 876.086 421.929 875.369 419.561 876.448C418.759 876.814 417.566 877.357 416.814 878.517C416.192 879.479 416.235 881.02 416.349 884.065C416.523 888.687 416.547 889.099 416.125 889.624C415.042 890.984 413.179 890.316 410.943 892.08C410.435 892.481 409.626 893.788 409.125 895.154C408.288 897.444 409.21 899.03 408.419 900.695C407.791 902.012 407.066 901.966 404.937 902.978C403.428 903.695 401.739 904.724 400.99 904.064C400.872 903.961 400.819 903.847 400.791 903.78C398.739 899.18 399.658 895.744 399.658 895.744C399.925 894.75 399.836 895.083 400.723 893.365V893.362Z" fill="#147F5E"/>
<path id="Vector_18" d="M399.414 910.609C402.186 900.983 405.728 891.615 410.364 882.798C414.627 874.694 420.225 866.726 428.286 863.119C423.959 865.682 420.14 869.232 417.172 873.445C415.078 876.42 413.417 879.699 411.855 883.011C408.188 890.802 405.054 898.86 402.47 907.099C401.167 911.262 400.003 915.469 398.984 919.714C398.477 921.837 398.001 923.966 397.568 926.107C397.358 927.133 397.156 928.162 396.964 929.191C396.815 929.986 396.826 931.928 396.368 932.553C396.35 932.578 396.24 932.94 396.215 933C395.587 932.862 394.97 932.595 394.359 932.379C395.708 925.06 397.344 917.762 399.407 910.609H399.414Z" fill="#507264"/>
</g>
<g id="Group_3">
<path id="Vector_19" d="M396.446 912.959C396.446 910.055 400.762 911.482 402.495 908.121C404.482 904.255 405.398 904.735 406.122 899.169C406.328 897.6 406.108 895.893 405.892 894.341C405.586 892.155 404.312 890.49 403.773 888.403C403.623 887.821 403.57 887.182 403.826 886.639C404.468 885.265 406.239 886.17 407.333 885.624C409.764 884.406 411.227 881.62 410.914 878.933C410.652 876.675 409.214 874.616 407.255 873.466C407.01 873.324 406.754 873.189 406.573 872.969C405.65 871.858 410.279 869.689 410.964 869.171C413.111 867.546 413.697 866.204 414.109 865.057C414.979 862.64 414.893 860.546 414.833 859.009C414.734 856.481 414.237 856.155 414.35 853.929C414.382 853.322 414.51 851.477 415.319 849.333C416.594 845.946 418.656 844.2 418.464 844.012C418.209 843.76 415.309 847.615 410.24 850.543C405.632 853.205 403.709 853.929 401.774 855.381C400.791 856.119 398.902 856.844 398.146 859.736C397.926 860.574 397.422 863.605 397.664 865.057C398.008 867.13 398.31 869.942 397.905 870.864C397.532 871.716 396.972 871.592 394.277 872.558C392.858 873.065 391.122 873.47 390.149 874.709C389.223 875.891 389.241 877.573 389.649 879.021C390.092 880.601 390.795 882.149 391.377 883.686C391.981 885.283 393.262 886.039 392.836 888.02C392.545 889.372 391.601 890.487 390.621 891.463C389.272 892.808 387.572 894.267 387.267 896.265C386.841 899.027 387.597 901.76 388.836 904.216C389.461 905.455 390.202 906.637 390.983 907.784C391.693 908.827 392.148 910.091 393.394 910.613C393.649 910.719 393.922 910.794 394.142 910.964C394.522 911.259 394.444 911.784 394.469 912.21C394.476 912.345 394.494 912.483 394.561 912.601C394.732 912.909 396.464 913.499 396.464 912.959H396.446Z" fill="#5DB6A0"/>
<path id="Vector_20" d="M395.506 897.49C396.389 888.098 398.079 878.808 400.947 869.831C403.584 861.579 407.556 853.212 414.783 848.435C411.024 851.579 407.954 855.544 405.846 859.971C404.358 863.094 403.35 866.424 402.452 869.764C400.34 877.619 398.8 885.627 397.838 893.702C397.351 897.781 397.014 901.877 396.826 905.98C396.73 908.032 396.673 910.087 396.656 912.139C396.645 913.126 396.645 914.109 396.656 915.096C396.663 915.855 397.043 917.648 396.712 918.308C396.698 918.333 396.663 918.688 396.649 918.748C396.006 918.734 395.349 918.599 394.71 918.507C394.636 911.504 394.852 904.468 395.509 897.49H395.506Z" fill="#3C837C"/>
</g>
</g>
<g id="orangeflower">
<path id="Vector_21" d="M199.469 881.219C199.321 880.357 198.88 879.608 198.088 879.214C197.616 878.98 197.105 878.89 196.583 878.851C195.725 878.789 195.339 878.851 194.913 879.776C194.582 880.497 194.149 881.184 193.97 881.956C193.662 883.274 194.126 884.667 194.321 885.93C194.426 886.632 194.672 887.241 194.843 887.923C195.319 889.834 195.132 889.542 194.98 891.558C194.808 893.824 186.914 943.574 186.914 943.574L189.758 944.093C190.229 941.409 194.176 913.02 194.391 910.158C194.839 904.265 195.487 898.379 196.076 892.49C196.193 891.324 196.302 890.154 196.407 888.984C196.427 888.754 196.45 888.516 196.544 888.301C196.622 888.126 196.739 887.978 196.856 887.83C197.686 886.741 198.229 885.431 198.724 884.144C199.036 883.333 199.621 882.108 199.469 881.219V881.219Z" fill="#123A1B"/>
<path id="Vector_22" d="M197.175 868.005C196.594 867.935 198.057 860.525 199.129 858.516C199.609 857.619 201.06 855.213 200.26 854.456C199.071 853.329 197.597 854.566 193.611 855.213C188.724 856.009 181.384 855.365 181.103 857.202C180.651 860.143 187.62 867.303 186.891 867.771C186.778 867.845 178.701 861.687 176.645 861.64C173.751 861.574 170.596 862.857 168.865 866.457C168.424 867.373 167.519 869.359 168.521 870.989C169.489 872.557 172.324 870.782 175.171 870.232C179.375 869.417 182.839 870.993 182.917 871.313C182.999 871.648 176.095 874.335 174.348 875.657C174.348 875.657 172.074 877.681 172.429 879.245C172.737 880.614 183.771 887.217 187.402 888.204C191.033 889.191 195.416 879.628 196.314 879.327C198.849 878.477 200.939 885.774 206.079 886.355C209.402 886.73 212.218 885.029 214.956 883.376C218.123 881.461 221.953 879.152 222.121 875.821C222.269 872.849 219.437 870.388 217.257 869.359C212.374 867.05 209.469 870.369 209.032 869.175C208.65 868.122 209.991 867.381 214.277 865.209C217.678 863.485 219.968 865.993 220.447 865.345C221.052 864.526 212.031 856.761 207.53 856.434C198.517 855.778 198.088 868.111 197.179 868.001L197.175 868.005Z" fill="#EF7633"/>
<path id="Vector_23" d="M205.56 875.09C206.172 872.917 202.93 870.103 198.319 868.804C193.708 867.505 189.474 868.214 188.862 870.387C188.25 872.559 191.492 875.374 196.103 876.672C200.714 877.971 204.948 877.262 205.56 875.09Z" fill="#701538"/>
<path id="Vector_24" d="M189.851 930.575C190.842 925.364 190.896 919.822 189.551 913.882C188.311 908.422 185.577 902.272 178.396 896.418C181.992 899.803 184.637 903.278 186.091 906.534C187.117 908.832 187.55 911.008 187.862 913.137C188.591 918.145 188.638 922.962 188.014 927.537C187.698 929.849 187.909 930.333 187.8 932.513C187.741 933.652 187.382 935.707 187.468 939.057C187.484 939.603 187.468 942.923 187.246 943.422C187.078 943.808 188.533 943.394 188.767 943.886C188.775 943.905 187.246 943.387 187.246 943.422C187.979 943.718 188.022 943.628 188.767 943.886C190.339 940.345 189.118 934.448 189.855 930.575H189.851Z" fill="#123A1B"/>
<path id="Vector_25" d="M192.09 931.577C194.948 927.108 198.708 923.04 203.763 919.651C208.408 916.534 214.617 913.941 223.856 914.619C218.919 914.608 214.613 915.317 211.321 916.686C209.001 917.654 207.191 918.933 205.502 920.271C201.536 923.41 198.197 926.877 195.51 930.633C194.153 932.529 192.963 934.502 191.942 936.538C191.431 937.556 190.963 938.593 190.537 939.646C190.335 940.153 190.14 940.66 189.956 941.175C189.816 941.569 189.898 942.665 189.395 942.86C189.375 942.868 189.262 943.036 189.235 943.059C188.498 942.77 187.772 942.415 187.055 942.088C188.342 938.433 189.968 934.892 192.09 931.569V931.577Z" fill="#123A1B"/>
</g>
<g id="yellowflower">
<path id="Vector_26" d="M165.873 895.087C165.7 894.478 165.325 893.969 164.721 893.745C164.361 893.612 163.985 893.588 163.605 893.598C162.982 893.617 162.705 893.695 162.471 894.393C162.287 894.937 162.027 895.467 161.956 896.041C161.836 897.015 162.277 897.986 162.513 898.885C162.644 899.383 162.869 899.803 163.042 900.285C163.531 901.626 163.374 901.433 163.418 902.899C163.466 904.549 161.576 941.065 161.576 941.065L163.667 941.221C163.804 939.25 164.478 918.453 164.414 916.368C164.286 912.078 164.302 907.78 164.278 903.486C164.275 902.635 164.26 901.782 164.249 900.93C164.245 900.763 164.243 900.588 164.298 900.427C164.339 900.296 164.417 900.18 164.487 900.063C165.004 899.213 165.293 898.224 165.554 897.261C165.719 896.65 166.044 895.723 165.867 895.094L165.873 895.087Z" fill="#123A1B"/>
<path id="Vector_27" d="M163.209 885.722C162.785 885.716 163.272 880.253 163.895 878.725C164.174 878.04 165.037 876.192 164.4 875.708C163.454 874.986 162.486 875.992 159.658 876.762C156.19 877.712 150.842 877.808 150.782 879.155C150.681 881.312 156.259 885.947 155.771 886.341C155.695 886.402 149.393 882.577 147.908 882.701C145.813 882.874 143.634 884.044 142.66 886.775C142.412 887.47 141.908 888.974 142.758 890.071C143.575 891.129 145.487 889.63 147.5 889.016C150.471 888.106 153.095 888.98 153.174 889.206C153.257 889.44 148.484 891.91 147.322 892.998C147.322 892.998 145.837 894.63 146.212 895.735C146.539 896.699 155.007 900.619 157.707 901.059C160.403 901.494 162.836 894.253 163.463 893.968C165.227 893.159 167.295 898.267 171.051 898.294C173.478 898.312 175.38 896.867 177.23 895.467C179.368 893.845 181.958 891.88 181.823 889.464C181.702 887.307 179.472 885.747 177.815 885.17C174.112 883.878 172.271 886.495 171.866 885.667C171.509 884.939 172.422 884.3 175.349 882.401C177.672 880.897 179.518 882.531 179.814 882.028C180.186 881.392 173.081 876.476 169.808 876.581C163.253 876.798 163.886 885.733 163.221 885.724L163.209 885.722Z" fill="#F5A736"/>
<path id="Vector_28" d="M163.11 892.084C166.537 892.669 169.539 891.833 169.815 890.217C170.09 888.601 167.536 886.817 164.109 886.232C160.682 885.648 157.68 886.484 157.404 888.099C157.129 889.715 159.683 891.499 163.11 892.084Z" fill="#701538"/>
<path id="Vector_29" d="M163.166 924.206C164.813 920.908 167.113 917.824 170.355 915.111C173.337 912.618 177.434 910.372 183.869 910.163" fill="#123A1B"/>
<path id="Vector_30" d="M161.525 926.694C161.088 922.044 159.777 917.344 157.185 912.649C154.8 908.335 150.982 903.802 143.476 900.609C147.346 902.592 150.433 904.883 152.461 907.282C153.891 908.973 154.789 910.708 155.575 912.433C157.417 916.489 158.636 920.552 159.228 924.574C159.527 926.607 159.823 926.965 160.265 928.835C160.494 929.813 160.693 931.639 161.586 934.451C161.733 934.909 162.532 937.72 162.466 938.197C162.419 938.564 163.548 937.859 163.866 938.217C163.878 938.232 162.458 938.167 162.466 938.197C163.159 938.268 163.173 938.182 163.866 938.217C164.329 934.837 161.853 930.149 161.528 926.693L161.525 926.694Z" fill="#123A1B"/>
</g>
<g id="circleleaf">
<path id="Vector_31" d="M144.793 863.25C149.213 862.968 151.657 865.104 151.931 867.224C152.205 869.347 149.87 871.993 145.421 872.592C142.884 872.933 133.092 869.583 132.667 868.989C132.683 868.446 141.688 863.448 144.797 863.246L144.793 863.25Z" fill="#246D61"/>
<path id="Vector_32" d="M135.186 875.33C139.602 876.363 141.418 878.722 141.106 880.458C140.794 882.194 137.777 883.602 133.244 882.805C130.661 882.35 121.964 876.961 121.707 876.375C121.871 875.954 132.081 874.606 135.186 875.33Z" fill="#246D61"/>
<path id="Vector_33" d="M126.451 887.857C130.26 890.318 131.171 893.154 130.29 894.683C129.409 896.213 126.093 896.516 122.099 894.237C119.824 892.939 113.457 884.925 113.415 884.288C113.71 883.947 123.776 886.126 126.456 887.857H126.451Z" fill="#246D61"/>
<path id="Vector_34" d="M117.409 899.225C121.218 901.686 122.128 904.522 121.248 906.051C120.367 907.581 117.051 907.884 113.057 905.605C110.781 904.307 104.415 896.293 104.373 895.657C104.668 895.315 114.734 897.494 117.413 899.225H117.409Z" fill="#246D61"/>
<path id="Vector_35" d="M99.8767 884.836C96.8641 881.449 93.923 880.981 92.5452 882.085C91.1674 883.189 91.3738 886.509 94.2348 890.112C95.8654 892.164 104.756 897.232 105.392 897.178C105.683 896.832 101.996 887.217 99.8767 884.836Z" fill="#246D61"/>
<path id="Vector_36" d="M110.672 872.427C108.211 868.618 105.375 867.708 103.846 868.585C102.316 869.461 102.013 872.777 104.288 876.776C105.586 879.051 113.596 885.422 114.232 885.468C114.574 885.173 112.399 875.107 110.668 872.427H110.672Z" fill="#246D61"/>
<path id="Vector_37" d="M120.789 862.117C118.888 858 116.213 856.698 114.574 857.351C112.934 858.009 112.168 861.245 113.857 865.521C114.822 867.961 121.855 875.394 122.478 875.529C122.857 875.284 122.124 865.012 120.789 862.117Z" fill="#246D61"/>
<path id="Vector_38" d="M95.6169 904.775C101.853 895.884 108.839 887.55 116.824 880.201C124.164 873.447 132.907 867.342 142.859 866.676C137.306 867.683 131.975 869.895 127.341 873.123C124.071 875.398 121.168 878.158 118.366 880.985C111.776 887.642 105.67 894.772 100.108 902.306C97.2981 906.11 94.6267 910.016 92.0986 914.015C90.8345 916.012 89.6084 918.035 88.4159 920.078C87.8429 921.06 87.2825 922.046 86.7263 923.036C86.3007 923.799 85.6561 925.809 84.9524 926.285C84.9271 926.302 84.6828 926.639 84.6364 926.689C84.0002 926.31 83.4229 925.8 82.833 925.345C86.7516 918.296 90.9736 911.381 95.6127 904.77L95.6169 904.775Z" fill="#3C837C"/>
</g>
<g id="leaves2">
<g id="Group_4">
<path id="Vector_39" d="M74.2432 889.833C73.5901 888.573 72.0732 887.191 71.7909 886.896C71.3906 886.479 70.9861 884.899 70.746 884.136C70.4131 883.082 70.0634 878.793 70.0002 877.162C69.9201 875.148 69.9496 874.091 69.3766 873.219C68.4327 871.786 67.7965 871.365 64.847 870.834C62.7318 870.45 62.1082 870.834 61.5015 868.866C60.6672 866.169 59.8709 863.258 58.8807 861.733C57.9916 860.363 56.9003 859.803 52.9396 859.171C51.8946 859.002 45.8651 857.355 43.969 856.727C39.4184 855.227 37.0293 852.189 36.5658 852.589C35.7357 853.305 41.4746 860.865 42.8018 862.613C46.0673 866.915 47.1249 867.484 47.9129 867.779C48.7682 868.099 50.0407 868.373 50.7865 869.532C51.4775 870.606 50.9382 871.247 51.5871 872.068C52.4593 873.172 53.7992 872.481 56.0829 873.522C56.854 873.876 58.0085 874.398 58.729 875.515C59.3273 876.442 59.2852 877.929 59.1756 880.866C59.0071 885.324 58.986 885.72 59.3905 886.226C60.4312 887.536 62.2346 886.892 64.3878 888.594C64.8765 888.981 65.6602 890.241 66.1406 891.56C66.9496 893.768 66.0563 895.298 66.8232 896.903C67.4299 898.175 68.1252 898.125 70.1814 899.102C71.635 899.793 73.2657 900.788 73.9904 900.151C74.1042 900.055 74.1547 899.941 74.1842 899.878C76.1604 895.441 75.2755 892.129 75.2755 892.129C75.0185 891.172 75.1028 891.493 74.2516 889.837L74.2432 889.833Z" fill="#147F5E"/>
<path id="Vector_40" d="M75.5073 906.463C72.8317 897.181 69.4187 888.147 64.9481 879.644C60.84 871.828 55.4424 864.147 47.6685 860.667C51.8441 863.14 55.5225 866.561 58.3877 870.623C60.406 873.488 62.0113 876.653 63.5155 879.847C67.0507 887.359 70.076 895.129 72.5662 903.076C73.8218 907.087 74.9469 911.149 75.9244 915.24C76.4132 917.288 76.8724 919.34 77.2896 921.405C77.4918 922.395 77.6856 923.385 77.871 924.379C78.0143 925.146 78.0059 927.017 78.4441 927.619C78.4609 927.641 78.5663 927.994 78.5916 928.049C79.1983 927.919 79.7924 927.657 80.3781 927.451C79.0761 920.393 77.5002 913.357 75.5115 906.459L75.5073 906.463Z" fill="#507264"/>
</g>
<g id="Group_5">
<path id="Vector_41" d="M82.5061 890.3C83.1591 889.04 84.676 887.658 84.9583 887.363C85.3586 886.946 85.7631 885.366 86.0033 884.604C86.3362 883.55 86.6859 879.261 86.7491 877.63C86.8291 875.616 86.7996 874.559 87.3727 873.686C88.3165 872.254 88.9528 871.832 91.9022 871.301C94.0174 870.918 94.641 871.301 95.2478 869.334C96.082 866.637 96.8784 863.726 97.8686 862.2C98.7576 860.831 99.8489 860.27 103.81 859.638C104.855 859.47 110.884 857.822 112.78 857.195C117.331 855.695 119.72 852.657 120.183 853.057C121.014 853.773 115.275 861.332 113.947 863.081C110.682 867.383 109.624 867.952 108.836 868.247C107.981 868.567 106.709 868.841 105.963 869.999C105.272 871.074 105.811 871.714 105.162 872.536C104.29 873.64 102.95 872.949 100.666 873.99C99.8953 874.344 98.7408 874.866 98.0203 875.983C97.422 876.91 97.4641 878.397 97.5736 881.334C97.7422 885.792 97.7632 886.188 97.3587 886.693C96.318 888.004 94.5146 887.359 92.3615 889.061C91.8727 889.449 91.089 890.709 90.6087 892.028C89.7997 894.236 90.6929 895.765 89.9261 897.371C89.3193 898.643 88.6241 898.593 86.5679 899.57C85.1142 900.261 83.4836 901.255 82.7589 900.619C82.6451 900.522 82.5945 900.409 82.565 900.345C80.5889 895.908 81.4737 892.597 81.4737 892.597C81.7308 891.64 81.6465 891.96 82.4976 890.304L82.5061 890.3Z" fill="#147F5E"/>
<path id="Vector_42" d="M81.2419 906.931C83.9175 897.649 87.3305 888.615 91.801 880.112C95.9092 872.296 101.307 864.615 109.081 861.134C104.905 863.608 101.227 867.029 98.3615 871.091C96.3432 873.956 94.7379 877.12 93.2336 880.314C89.6985 887.827 86.6732 895.597 84.183 903.543C82.9274 907.555 81.8023 911.617 80.8248 915.708C80.336 917.756 79.8767 919.808 79.4596 921.872C79.2574 922.862 79.0635 923.853 78.8781 924.847C78.7349 925.614 78.7433 927.485 78.3051 928.087C78.2882 928.108 78.1829 928.462 78.1576 928.517C77.5509 928.386 76.9568 928.125 76.3711 927.919C77.6731 920.861 79.2489 913.824 81.2377 906.927L81.2419 906.931Z" fill="#507264"/>
</g>
<g id="Group_6">
<path id="Vector_43" d="M78.3809 908.511C78.3809 905.713 82.5439 907.087 84.2124 903.847C86.1296 900.118 87.0102 900.581 87.7097 895.217C87.9077 893.705 87.697 892.057 87.4863 890.562C87.1914 888.455 85.961 886.849 85.4428 884.835C85.2995 884.275 85.249 883.66 85.4933 883.133C86.1127 881.806 87.8192 882.682 88.8768 882.156C91.2237 880.984 92.6311 878.292 92.3277 875.705C92.0749 873.526 90.6886 871.542 88.7967 870.433C88.5608 870.294 88.3122 870.164 88.1394 869.957C87.2504 868.887 91.7125 866.797 92.374 866.296C94.4429 864.728 95.0117 863.435 95.4078 862.331C96.2463 860.001 96.1662 857.978 96.1072 856.499C96.0103 854.06 95.5342 853.748 95.6395 851.599C95.669 851.013 95.7954 849.235 96.5707 847.166C97.8011 843.901 99.7899 842.215 99.6045 842.034C99.3559 841.79 96.5623 845.506 91.6746 848.333C87.2335 850.9 85.3754 851.599 83.5088 852.998C82.5607 853.71 80.7405 854.405 80.0115 857.195C79.8009 858.004 79.3121 860.928 79.5438 862.327C79.8767 864.324 80.1674 867.033 79.7756 867.926C79.4174 868.748 78.8781 868.626 76.2741 869.561C74.9047 870.05 73.232 870.442 72.2924 871.634C71.3991 872.772 71.4159 874.398 71.8078 875.793C72.2376 877.318 72.916 878.81 73.4721 880.293C74.0536 881.835 75.2882 882.564 74.8795 884.473C74.5972 885.779 73.687 886.849 72.7432 887.793C71.4412 889.091 69.8022 890.498 69.5072 892.424C69.0985 895.087 69.8274 897.725 71.0199 900.093C71.6224 901.289 72.3345 902.427 73.0887 903.531C73.7755 904.538 74.2137 905.756 75.4146 906.261C75.659 906.362 75.9244 906.438 76.1351 906.598C76.5017 906.88 76.4258 907.386 76.4511 907.799C76.4595 907.93 76.4764 908.06 76.5396 908.174C76.7039 908.473 78.3725 909.042 78.3725 908.52L78.3809 908.511Z" fill="#5DB6A0"/>
<path id="Vector_44" d="M77.4708 893.595C78.3261 884.54 79.9525 875.582 82.7166 866.924C85.2574 858.969 89.0917 850.9 96.0566 846.29C92.433 849.324 89.4709 853.145 87.4358 857.414C85.999 860.426 85.0298 863.637 84.1661 866.856C82.1309 874.432 80.6436 882.151 79.7166 889.938C79.2489 893.869 78.9244 897.821 78.739 901.778C78.6463 903.758 78.5916 905.734 78.5747 907.719C78.5663 908.671 78.5663 909.619 78.5747 910.572C78.5789 911.305 78.9455 913.032 78.6295 913.669C78.6169 913.694 78.5789 914.035 78.5705 914.094C77.9511 914.081 77.3191 913.951 76.6997 913.862C76.6281 907.108 76.8345 900.324 77.4708 893.595V893.595Z" fill="#3C837C"/>
</g>
</g>
<g id="leaves1">
<g id="Group_7">
<path id="Vector_45" d="M4.75249 881.853C3.77495 879.957 1.49122 877.884 1.06566 877.442C0.467335 876.81 -0.143628 874.437 -0.505992 873.296C-1.0074 871.711 -1.52988 865.269 -1.62679 862.816C-1.74898 859.791 -1.70263 858.203 -2.56641 856.888C-3.98637 854.731 -4.94284 854.103 -9.37547 853.302C-12.5567 852.729 -13.4921 853.298 -14.4064 850.344C-15.6578 846.291 -16.8587 841.917 -18.3461 839.625C-19.6818 837.565 -21.3208 836.726 -27.2703 835.774C-28.8378 835.521 -37.9053 833.044 -40.7494 832.104C-47.588 829.846 -51.1779 825.282 -51.8774 825.885C-53.1246 826.964 -44.4952 838.323 -42.5022 840.948C-37.5935 847.412 -36.005 848.267 -34.8252 848.71C-33.5401 849.19 -31.6271 849.603 -30.5105 851.343C-29.474 852.957 -30.2788 853.918 -29.3055 855.156C-27.9951 856.816 -25.981 855.776 -22.5512 857.343C-21.3925 857.874 -19.6607 858.662 -18.5736 860.343C-17.6719 861.734 -17.7351 863.971 -17.8994 868.387C-18.148 875.082 -18.186 875.68 -17.575 876.443C-16.0076 878.411 -13.3025 877.446 -10.0623 880.004C-9.32491 880.585 -8.15355 882.481 -7.42882 884.457C-6.21533 887.773 -7.55523 890.078 -6.40493 892.484C-5.49481 894.393 -4.44564 894.321 -1.36134 895.792C0.825484 896.832 3.26933 898.324 4.36064 897.367C4.52918 897.22 4.60502 897.051 4.65137 896.955C7.62191 890.289 6.29043 885.308 6.29043 885.308C5.907 883.872 6.03341 884.348 4.74828 881.862L4.75249 881.853Z" fill="#147F5E"/>
<path id="Vector_46" d="M6.65279 906.848C2.63309 892.897 -2.49899 879.321 -9.21957 866.541C-15.3966 854.798 -23.5077 843.249 -35.1918 838.02C-28.9178 841.736 -23.3855 846.877 -19.0834 852.986C-16.0497 857.297 -13.6396 862.05 -11.3811 866.853C-6.06785 878.141 -1.52146 889.821 2.22016 901.766C4.11203 907.8 5.79323 913.897 7.27218 920.049C8.00955 923.125 8.69635 926.213 9.32838 929.31C9.63176 930.798 9.92249 932.289 10.2006 933.781C10.4155 934.931 10.4028 937.746 11.0644 938.652C11.0896 938.685 11.2498 939.212 11.2835 939.301C12.1936 939.102 13.0869 938.715 13.9717 938.399C12.0166 927.789 9.6444 917.213 6.65701 906.848H6.65279Z" fill="#507264"/>
</g>
<g id="Group_8">
<path id="Vector_47" d="M17.1698 882.557C18.1473 880.661 20.4311 878.588 20.8566 878.145C21.455 877.513 22.0659 875.141 22.4283 873.999C22.9297 872.415 23.4522 865.972 23.5491 863.52C23.6713 860.495 23.6249 858.906 24.4887 857.592C25.9087 855.434 26.8651 854.807 31.2978 854.006C34.479 853.433 35.4144 854.002 36.3287 851.048C37.5801 846.995 38.781 842.621 40.2684 840.329C41.6041 838.268 43.2431 837.43 49.1926 836.478C50.7601 836.225 59.8276 833.747 62.6717 832.808C69.5103 830.549 73.1002 825.986 73.7996 826.589C75.0468 827.667 66.4175 839.027 64.4245 841.652C59.5158 848.116 57.9273 848.971 56.7475 849.413C55.4624 849.894 53.5494 850.307 52.4328 852.047C51.3963 853.661 52.2011 854.621 51.2278 855.86C49.9174 857.52 47.9033 856.479 44.4735 858.047C43.3148 858.578 41.583 859.366 40.4959 861.047C39.5942 862.437 39.6574 864.675 39.8217 869.09C40.0703 875.786 40.1083 876.384 39.4973 877.147C37.9299 879.114 35.2248 878.15 31.9846 880.707C31.2472 881.289 30.0758 883.185 29.3511 885.161C28.1376 888.477 29.4775 890.782 28.3272 893.188C27.4171 895.096 26.3679 895.025 23.2836 896.495C21.0968 897.536 18.653 899.028 17.5617 898.071C17.3931 897.924 17.3173 897.755 17.2709 897.658C14.3004 890.992 15.6319 886.012 15.6319 886.012C16.0153 884.575 15.8889 885.051 17.174 882.565L17.1698 882.557Z" fill="#147F5E"/>
<path id="Vector_48" d="M15.2695 907.547C19.2892 893.596 24.4212 880.02 31.1418 867.241C37.3189 855.498 45.4299 843.948 57.114 838.719C50.8401 842.436 45.3077 847.576 41.0057 853.686C37.972 857.996 35.5618 862.749 33.3034 867.553C27.9901 878.841 23.4437 890.52 19.7021 902.466C17.8102 908.5 16.129 914.597 14.6501 920.748C13.9127 923.824 13.2259 926.913 12.5939 930.01C12.2905 931.497 11.9998 932.989 11.7217 934.48C11.5068 935.631 11.5194 938.445 10.8579 939.351C10.8326 939.385 10.6725 939.911 10.6388 940C9.72867 939.802 8.8354 939.414 7.95056 939.098C9.90564 928.489 12.2779 917.913 15.2653 907.547H15.2695Z" fill="#507264"/>
</g>
<g id="Group_9">
<path id="Vector_49" d="M10.9675 909.928C10.9675 905.723 17.2246 907.788 19.7317 902.917C22.6137 897.317 23.9368 898.008 24.9902 889.943C25.2851 887.668 24.9691 885.195 24.6531 882.949C24.2106 879.78 22.3609 877.37 21.5814 874.341C21.3623 873.498 21.2865 872.571 21.6572 871.783C22.5884 869.79 25.1545 871.105 26.743 870.312C30.2697 868.551 32.3891 864.506 31.9298 860.617C31.5464 857.347 29.4649 854.364 26.625 852.696C26.2711 852.489 25.9003 852.291 25.6348 851.975C24.2991 850.366 31.0071 847.222 31.9972 846.472C35.1068 844.113 35.958 842.17 36.5563 840.514C37.8161 837.013 37.6939 833.975 37.6097 831.75C37.4664 828.084 36.7459 827.617 36.9102 824.389C36.9524 823.513 37.142 820.837 38.3133 817.728C40.1589 812.823 43.1505 810.286 42.8724 810.017C42.5016 809.654 38.2965 815.237 30.9523 819.485C24.2781 823.344 21.4845 824.393 18.6825 826.496C17.2583 827.562 14.5195 828.611 13.424 832.808C13.108 834.025 12.3706 838.416 12.7246 840.519C13.226 843.523 13.66 847.593 13.0743 848.933C12.5349 850.168 11.7217 849.986 7.81579 851.385C5.75959 852.123 3.24411 852.708 1.83258 854.503C0.488465 856.214 0.513745 858.654 1.10364 860.752C1.74831 863.044 2.76799 865.286 3.60648 867.515C4.47868 869.832 6.33684 870.928 5.72167 873.793C5.30032 875.756 3.93092 877.366 2.51096 878.786C0.555882 880.737 -1.90482 882.852 -2.35146 885.747C-2.96663 889.749 -1.87111 893.71 -0.0803621 897.271C0.825547 899.07 1.89578 900.776 3.02922 902.441C4.05732 903.953 4.71885 905.782 6.52645 906.54C6.89725 906.696 7.29332 906.802 7.60934 907.05C8.15709 907.476 8.04333 908.238 8.08125 908.854C8.09389 909.047 8.11917 909.25 8.21187 909.418C8.46047 909.869 10.9675 910.72 10.9675 909.936V909.928Z" fill="#5DB6A0"/>
<path id="Vector_50" d="M9.60232 887.504C10.8832 873.894 13.3313 860.427 17.4858 847.416C21.3075 835.458 27.0674 823.332 37.538 816.404C32.0899 820.964 27.6404 826.711 24.5814 833.124C22.4241 837.649 20.9662 842.474 19.6642 847.315C16.6052 858.7 14.372 870.304 12.9774 882.009C12.2737 887.921 11.7849 893.858 11.511 899.803C11.3762 902.778 11.2919 905.752 11.2624 908.727C11.2498 910.156 11.2456 911.584 11.2624 913.012C11.2709 914.116 11.8228 916.712 11.3467 917.668C11.3299 917.706 11.2751 918.22 11.254 918.309C10.3228 918.288 9.37057 918.09 8.44359 917.959C8.33826 907.809 8.65006 897.612 9.60232 887.499V887.504Z" fill="#3C837C"/>
</g>
</g>
</g>
<defs>
<linearGradient id="paint0_linear_3_257" x1="214" y1="0" x2="214" y2="926" gradientUnits="userSpaceOnUse">
<stop offset="0.0255469" stop-color="#EDF2CD"/>
<stop offset="0.547298" stop-color="#9EDCE0"/>
</linearGradient>
<linearGradient id="paint1_linear_3_257" x1="86.3756" y1="313.736" x2="87.9197" y2="427.726" gradientUnits="userSpaceOnUse">
<stop offset="0.03" stop-color="#E3E660"/>
<stop offset="0.44" stop-color="#E4EEBF"/>
</linearGradient>
<linearGradient id="paint2_linear_3_257" x1="121.999" y1="333" x2="121.999" y2="523" gradientUnits="userSpaceOnUse">
<stop stop-color="#B8E1D4"/>
<stop offset="1" stop-color="#6BBEA4"/>
</linearGradient>
<linearGradient id="paint3_linear_3_257" x1="327.502" y1="384" x2="327.502" y2="543" gradientUnits="userSpaceOnUse">
<stop offset="0.0840499" stop-color="#B4DDD4"/>
<stop offset="1" stop-color="#28BA98"/>
</linearGradient>
<linearGradient id="paint4_linear_3_257" x1="158.214" y1="429.137" x2="156.681" y2="567" gradientUnits="userSpaceOnUse">
<stop stop-color="#64B5B8"/>
<stop offset="1" stop-color="#026B6F"/>
</linearGradient>
<linearGradient id="paint5_linear_3_257" x1="203.44" y1="497" x2="203.44" y2="567" gradientUnits="userSpaceOnUse">
<stop stop-color="#8BC49B"/>
<stop offset="1" stop-color="#279846"/>
</linearGradient>
<linearGradient id="paint6_linear_3_257" x1="191.809" y1="638.085" x2="362.093" y2="932.064" gradientUnits="userSpaceOnUse">
<stop offset="0.42" stop-color="#E3D5A5"/>
<stop offset="0.87" stop-color="#F1BBA3"/>
</linearGradient>
<clipPath id="clip0_3_257">
<rect width="428" height="926" fill="white"/>
</clipPath>
</defs>
</svg>
