<?xml version="1.0" encoding="UTF-8"?><svg id="Layer_1" xmlns="http://www.w3.org/2000/svg" viewBox="0 0 95.49 99.16"><defs><style>.cls-1{fill:#f5a736;}.cls-2{fill:#123a1b;}.cls-3{fill:#701538;}</style></defs><g><path class="cls-2" d="M54.1,28.81c-.43-.85-1.13-1.5-2.08-1.66-.57-.09-1.13-.03-1.69,.1-.92,.21-1.3,.4-1.45,1.5-.12,.86-.35,1.71-.29,2.58,.1,1.48,1.03,2.78,1.63,4.04,.34,.7,.79,1.26,1.18,1.92,1.1,1.85,.82,1.6,1.3,3.76,.54,2.42,8.13,56.95,8.13,56.95l3.14-.36c-.36-2.96-5.27-33.89-5.96-36.96-1.41-6.3-2.6-12.66-3.86-19.01-.25-1.26-.51-2.51-.77-3.77-.05-.25-.1-.5-.07-.76,.02-.21,.1-.4,.17-.59,.52-1.4,.67-2.95,.78-4.45,.07-.95,.29-2.41-.15-3.29Z"/><path class="cls-1" d="M47.49,15.73c-.63,.11-1.46-8.1-.98-10.54,.22-1.09,.97-4.07-.11-4.6-1.6-.8-2.75,.96-6.71,2.91-4.85,2.39-12.73,4.05-12.44,6.06,.46,3.22,10.03,8.49,9.42,9.21-.1,.11-10.5-3.75-12.66-3.15-3.05,.85-5.94,3.2-6.6,7.51-.17,1.1-.48,3.46,1.08,4.85,1.51,1.33,3.91-1.43,6.71-2.91,4.14-2.19,8.26-1.64,8.44-1.33,.19,.33-6.17,5.33-7.57,7.27,0,0-1.73,2.84-.87,4.36,.76,1.33,14.39,4.72,18.51,4.6s5.65-11.52,6.49-12.12c2.38-1.7,6.89,5.27,12.45,4.24,3.59-.66,6-3.34,8.33-5.94,2.7-3.01,5.97-6.64,5.08-10.18-.79-3.15-4.53-4.82-7.14-5.21-5.84-.86-7.82,3.54-8.66,2.43-.74-.98,.43-2.18,4.22-5.82,3.01-2.89,6.2-.99,6.49-1.82,.37-1.05-11.53-6.3-16.34-5.21-9.63,2.18-6.15,15.21-7.14,15.39Z"/><ellipse class="cls-3" cx="49.06" cy="20.7" rx="9.48" ry="4.47" transform="translate(-.42 1.03) rotate(-1.2)"/></g><path class="cls-2" d="M59.43,82.94c-1.02-5.45-3.06-10.87-6.64-16.15-3.28-4.85-8.28-9.8-17.5-12.78,4.79,1.93,8.69,4.31,11.34,6.93,1.87,1.85,3.12,3.8,4.23,5.76,2.61,4.6,4.49,9.28,5.62,13.97,.57,2.37,.96,2.76,1.68,4.93,.38,1.13,.81,3.27,2.16,6.5,.22,.53,1.47,3.77,1.44,4.34-.02,.44,1.24-.52,1.66-.13,.02,.01-1.67,.09-1.66,.13,.83,.01,.83-.09,1.66-.13,.18-4.05-3.24-9.33-4-13.38Z"/><path class="cls-2" d="M58.36,67c1.5-5.34,4.02-10.56,8.05-15.49,3.7-4.53,9.12-9.02,18.57-11.16"/></svg>