<?xml version="1.0" encoding="UTF-8"?><svg id="Layer_1" xmlns="http://www.w3.org/2000/svg" viewBox="0 0 132 178"><defs><style>.cls-1{fill:#ef7633;}.cls-2{fill:#123a1b;}.cls-3{fill:#701538;}</style></defs><g><path class="cls-2" d="M65.87,55.97c-.74-1.47-1.95-2.59-3.59-2.86-.98-.16-1.95-.04-2.92,.17-1.58,.36-2.25,.69-2.5,2.58-.2,1.49-.61,2.96-.51,4.46,.17,2.55,1.77,4.8,2.82,6.98,.58,1.21,1.36,2.17,2.04,3.31,1.91,3.19,1.41,2.76,2.24,6.49,.94,4.18,14.03,98.34,14.03,98.34l5.42-.63c-.62-5.1-9.11-58.52-10.29-63.82-2.43-10.89-4.5-21.87-6.67-32.82-.43-2.17-.88-4.34-1.33-6.51-.09-.43-.18-.87-.13-1.31,.04-.36,.18-.69,.3-1.02,.9-2.42,1.16-5.09,1.35-7.68,.12-1.64,.5-4.17-.26-5.69Z"/><path class="cls-1" d="M54.47,33.38c-1.09,.2-2.52-13.99-1.68-18.2,.37-1.88,1.67-7.02-.19-7.95-2.76-1.38-4.75,1.66-11.59,5.02-8.38,4.12-21.99,7-21.49,10.47,.8,5.56,17.32,14.65,16.26,15.9-.16,.19-18.13-6.48-21.87-5.44-5.26,1.47-10.25,5.52-11.4,12.98-.29,1.9-.84,5.98,1.87,8.37,2.61,2.3,6.75-2.46,11.59-5.02,7.14-3.78,14.26-2.84,14.58-2.3,.33,.56-10.65,9.21-13.08,12.56,0,0-2.99,4.9-1.49,7.53,1.31,2.3,24.86,8.16,31.96,7.95s9.76-19.89,11.21-20.93c4.11-2.93,11.89,9.09,21.49,7.32,6.2-1.15,10.35-5.77,14.39-10.26,4.67-5.2,10.31-11.47,8.78-17.58-1.36-5.45-7.83-8.33-12.34-9-10.09-1.48-13.5,6.11-14.95,4.19-1.27-1.69,.75-3.77,7.29-10.05,5.19-4.98,10.7-1.71,11.21-3.14,.64-1.81-19.92-10.87-28.22-8.99-16.63,3.77-10.63,26.27-12.33,26.58Z"/><ellipse class="cls-3" cx="57.18" cy="41.95" rx="16.37" ry="7.72" transform="translate(-.87 1.21) rotate(-1.2)"/></g><path class="cls-2" d="M75.65,150.37c-1.08-9.95-4.02-19.99-9.72-29.97-5.24-9.17-13.55-18.78-29.74-25.4,8.35,4.13,15.04,8.96,19.45,14.04,3.11,3.59,5.09,7.27,6.82,10.95,4.07,8.64,6.8,17.31,8.19,25.92,.7,4.35,1.35,5.1,2.35,9.1,.52,2.09,1,6,3,12,.33,.98,2.12,6.98,2,8-.09,.79,2.31-.76,3,0,.03,.03-3.02-.07-3,0,1.49,.13,1.51-.05,3,0,.89-7.25-4.55-17.23-5.35-24.63Z"/><path class="cls-2" d="M80.23,150.95c2.7-9.64,7.26-19.05,14.52-27.95,6.68-8.18,16.46-16.27,33.51-20.13-8.92,2.69-16.31,6.34-21.49,10.62-3.66,3.02-6.22,6.33-8.53,9.67-5.43,7.85-9.56,15.95-12.35,24.21-1.41,4.17-2.48,8.38-3.2,12.63-.36,2.12-.64,4.25-.83,6.38-.09,1.02-.16,2.05-.21,3.08-.04,.79,.72,2.72-.09,3.35-.03,.02-.14,.39-.18,.45-1.49-.11-3-.36-4.47-.55,.32-7.3,1.3-14.59,3.31-21.76Z"/></svg>