<svg width="834" height="1194" viewBox="0 0 834 1194" fill="none" xmlns="http://www.w3.org/2000/svg">
<g id="iPad Pro 11&#34; - 1" clip-path="url(#clip0_3_365)">
<rect width="834" height="1194" fill="white"/>
<g id="portfoliowallpaper 1" clip-path="url(#clip1_3_365)">
<rect width="2173" height="1194" transform="translate(-670)" fill="url(#paint0_linear_3_365)"/>
<g id="sun">
<path id="Vector" d="M173.029 446C231.036 446 278.059 398.99 278.059 341C278.059 283.01 231.036 236 173.029 236C115.023 236 68 283.01 68 341C68 398.99 115.023 446 173.029 446Z" fill="url(#paint1_linear_3_365)"/>
</g>
<g id="mountain1">
<path id="Vector_2" d="M-652.242 206.931C-654 205.675 -591.552 197.23 -522.654 229.29C-471.17 253.238 -455.2 283.576 -405.486 304.335C-355.335 325.271 -357.105 275.308 -243.935 299.545C-169.381 315.514 -173.076 347.675 -130.317 365.011C-95.0616 379.302 -71.3749 373.201 -38.0008 366.611C-2.87955 359.676 12.2172 352.642 40.1149 355.431C91.7776 360.599 94.9582 387.303 171.484 409.717C201.498 418.508 224.815 436.722 249.599 451.235C276.746 467.137 291.059 487.563 315.284 495.942C338.365 503.921 369.757 495.742 439.552 508.71C482.826 516.756 540.873 539.982 558.489 574.176L535.407 625.272L-654 609.303L-652.219 206.931H-652.242Z" fill="url(#paint2_linear_3_365)"/>
</g>
<g id="mountain2">
<path id="Vector_3" d="M-643.989 349.565C-643.989 328.528 -590.03 325.294 -552.92 318.96C-508.088 311.314 -437.872 327.939 -412.812 336.174C-390.575 343.486 -364.042 364.911 -313.33 406.94C-272.95 440.412 -269.558 452.691 -239.075 460.493C-216.659 466.227 -166.862 461.359 -118.583 454.758C-63.8991 447.28 -62.125 447.946 -26.1079 449.024C-7.60838 449.58 7.488 441.134 46.752 468.149C84.3647 494.042 90.2001 529.292 135.021 556.141C168.483 576.177 191.724 556.707 199.468 556.141C218.637 554.729 225.309 555.151 240.104 561.875C252.712 567.609 264.997 582.867 294.743 602.048C303.592 607.748 331.832 622.228 359.19 615.438C374.599 611.616 394.895 583.145 433.445 571.443C471.995 559.741 545.535 569.531 580.56 567.62C603.132 566.387 587.567 661.345 587.567 661.345L317.159 667.08L-639.794 613.527C-639.794 613.527 -644 372.168 -644 349.565H-643.989Z" fill="url(#paint3_linear_3_365)"/>
</g>
<g id="mountain3">
<path id="Vector_4" d="M354 589.349C359.618 581.049 380.618 552.134 392.376 548.091C403.967 544.102 413.649 542.251 430.465 539.032C437.223 537.738 474.694 535.149 485.752 529.972C501.391 522.651 502.155 516.913 515.853 498.912C525.476 486.264 539.056 466.819 550.867 465.263C560.694 463.969 563.312 468.044 572.984 463.969C579.129 461.381 577.483 457.247 606.154 432.908C618.363 422.544 630.061 419.715 638.098 418.672C644.232 417.876 649.668 421.116 658.984 421.261C673.166 421.48 681.547 414.549 687.241 412.202C700.541 406.72 700.659 403.554 709.358 400.554C727.453 394.313 739.985 407.773 767.44 424.844C773.537 428.636 772.091 428.095 775.424 430.021C803.949 446.465 824.937 434.326 835.291 430.32C855.801 422.384 872.762 416.084 872.762 416.084V650.342C872.762 650.342 371.485 659.402 364.727 655.519" fill="url(#paint4_linear_3_365)"/>
</g>
<g id="mountain4">
<path id="Vector_5" d="M1136.99 470.316C1112.41 466.327 1091.99 459.797 1047 469C1011.92 476.176 986.352 489.145 950.159 503.182C910.963 518.378 842.487 547.305 809.298 546.568C775.92 545.823 728.107 515.018 668.438 518.957C653.676 519.934 626.579 526.721 556.925 557.087C453.922 601.979 446.34 603.908 406.284 618.88C374.974 630.583 290.786 655.114 244.882 655.694C212.887 656.099 154.891 633.347 120.653 618.88C87.0084 604.669 17.7341 567.905 -78.8957 536.049C-138.938 516.251 -216.821 497.919 -252.032 484.776C-290.56 470.391 -319.337 471.707 -340 463V703.019H1137V475.58" fill="url(#paint5_linear_3_365)"/>
</g>
<g id="field">
<path id="Vector_6" d="M1028.99 606.622C930 647.474 654.093 698.42 477.017 705.007C297.715 711.678 55.6518 648.25 25.698 639.87C-49.0797 618.953 -112.243 591.559 -156 570L-155.451 968.301L1028.94 968.713L1029 606.622H1028.99Z" fill="#8CC76D"/>
<path id="Vector_7" opacity="0.8" d="M75.0092 827.75C80.5079 827.75 84.9654 824.188 84.9654 819.794C84.9654 815.4 80.5079 811.838 75.0092 811.838C69.5106 811.838 65.0531 815.4 65.0531 819.794C65.0531 824.188 69.5106 827.75 75.0092 827.75Z" fill="#F6DCC0"/>
<path id="Vector_8" opacity="0.8" d="M658.477 768.975C663.976 768.975 668.433 765.413 668.433 761.019C668.433 756.625 663.976 753.063 658.477 753.063C652.978 753.063 648.521 756.625 648.521 761.019C648.521 765.413 652.978 768.975 658.477 768.975Z" fill="#F6DCC0"/>
<path id="Vector_9" opacity="0.8" d="M94.4581 889.264C98.7311 889.264 102.195 886.391 102.195 882.847C102.195 879.303 98.7311 876.43 94.4581 876.43C90.1852 876.43 86.7213 879.303 86.7213 882.847C86.7213 886.391 90.1852 889.264 94.4581 889.264Z" fill="#F6DCC0"/>
<rect id="Rectangle 2" x="-3" y="963" width="839" height="361" fill="#8CC76D"/>
<path id="Vector_10" d="M422.867 1195.61C435.914 1175.34 454.961 1149.39 462.898 1137.88C467.363 1131.41 483.828 1100.98 491.302 1082.54C497.856 1066.36 504.008 1060.73 501.767 1030.54C498.41 985.35 473.948 981.713 469.623 976.872C463.641 970.162 392.471 930.665 332.083 916.491C281.58 904.635 245.843 888.31 231.918 837.656C229.634 829.347 220.838 802.776 225.193 780.63C228.58 763.393 239.155 755.77 249.863 750.434C276.135 737.351 294.823 746.718 323.116 753.789C350.393 760.6 371.176 761.422 390.394 762.177C394.025 762.323 391.022 762.143 447.95 758.821C455.753 758.371 469.331 757.583 486.076 748.756C497.028 742.98 503.161 737.734 504.763 735.335C513.736 721.915 517.47 718.56 518.731 717.4C520.57 715.7 528.367 704.227 528.617 704.148C532.326 703 539.13 703 539.13 703C539.13 703 529.945 738.15 529.439 740.357C528.598 744.005 528.166 745.491 527.198 748.745C524.207 758.81 515.837 776.926 494.305 789.006C479.357 797.394 450.947 804.105 424.036 804.105C411.007 804.105 386.216 802.427 362.74 802.427C355.266 802.427 342.56 804.105 322.373 797.394C322.251 797.349 293.214 789.536 288.737 789.006C274.533 787.329 261.077 790.684 260.334 799.072C259.585 807.46 269.245 813.911 285.003 822.558C308.887 835.652 325.236 837.127 348.541 841.011C351.483 841.507 387.397 847.564 423.293 857.787C428.324 859.217 449.071 867.132 490.571 882.95C520.753 894.457 536.121 900.672 549.625 923.212C555.778 933.48 567.747 953.453 572.797 988.626C578.699 1029.74 571.731 1067.83 563.824 1111.08C559.012 1137.38 540.702 1200 540.702 1200C540.702 1200 421.143 1198.34 422.879 1195.64L422.867 1195.61Z" fill="url(#paint6_linear_3_365)"/>
</g>
</g>
<g id="orangeflower">
<path id="Vector_11" d="M316.736 1102.93C316.492 1101.5 315.764 1100.27 314.457 1099.62C313.678 1099.23 312.834 1099.08 311.971 1099.02C310.555 1098.92 309.917 1099.02 309.215 1100.54C308.668 1101.73 307.953 1102.87 307.657 1104.14C307.148 1106.32 307.915 1108.62 308.237 1110.7C308.411 1111.86 308.816 1112.86 309.1 1113.99C309.885 1117.15 309.576 1116.66 309.325 1119.99C309.042 1123.73 296.009 1205.85 296.009 1205.85L300.703 1206.7C301.482 1202.27 307.998 1155.42 308.353 1150.69C309.093 1140.96 310.162 1131.25 311.134 1121.53C311.327 1119.6 311.508 1117.67 311.682 1115.74C311.714 1115.36 311.752 1114.97 311.907 1114.62C312.036 1114.33 312.229 1114.08 312.422 1113.84C313.794 1112.04 314.689 1109.88 315.506 1107.75C316.022 1106.41 316.987 1104.39 316.736 1102.93V1102.93Z" fill="#123A1B"/>
<path id="Vector_12" d="M312.95 1081.12C311.991 1081 314.405 1068.77 316.176 1065.45C316.968 1063.97 319.363 1060 318.043 1058.75C316.08 1056.89 313.646 1058.93 307.065 1060C298.997 1061.32 286.878 1060.25 286.415 1063.29C285.668 1068.14 297.174 1079.96 295.97 1080.73C295.783 1080.85 282.448 1070.69 279.055 1070.61C274.277 1070.5 269.068 1072.62 266.209 1078.56C265.481 1080.07 263.987 1083.35 265.642 1086.04C267.239 1088.63 271.92 1085.7 276.621 1084.79C283.562 1083.45 289.28 1086.05 289.409 1086.58C289.544 1087.13 278.147 1091.56 275.262 1093.75C275.262 1093.75 271.508 1097.09 272.094 1099.67C272.603 1101.93 290.819 1112.83 296.814 1114.45C302.809 1116.08 310.046 1100.3 311.527 1099.8C315.712 1098.4 319.164 1110.44 327.651 1111.4C333.137 1112.02 337.786 1109.22 342.306 1106.49C347.534 1103.32 353.858 1099.51 354.134 1094.02C354.379 1089.11 349.704 1085.05 346.105 1083.35C338.043 1079.54 333.246 1085.02 332.525 1083.05C331.894 1081.31 334.109 1080.09 341.186 1076.5C346.8 1073.66 350.58 1077.79 351.372 1076.73C352.37 1075.37 337.477 1062.56 330.046 1062.02C315.165 1060.94 314.457 1081.29 312.957 1081.11L312.95 1081.12Z" fill="#EF7633"/>
<path id="Vector_13" d="M326.793 1092.81C327.804 1089.22 322.451 1084.58 314.839 1082.43C307.226 1080.29 300.235 1081.46 299.225 1085.05C298.214 1088.63 303.567 1093.28 311.18 1095.42C318.792 1097.57 325.783 1096.4 326.793 1092.81Z" fill="#701538"/>
<path id="Vector_14" d="M300.858 1184.39C302.493 1175.79 302.583 1166.64 300.362 1156.84C298.314 1147.83 293.8 1137.67 281.946 1128.01C287.883 1133.6 292.248 1139.34 294.65 1144.71C296.344 1148.5 297.058 1152.09 297.574 1155.61C298.778 1163.87 298.855 1171.82 297.825 1179.38C297.303 1183.19 297.651 1183.99 297.471 1187.59C297.374 1189.47 296.782 1192.86 296.923 1198.39C296.949 1199.29 296.923 1204.77 296.556 1205.59C296.279 1206.23 298.681 1205.55 299.067 1206.36C299.08 1206.39 296.556 1205.54 296.556 1205.59C297.767 1206.08 297.838 1205.94 299.067 1206.36C301.662 1200.51 299.647 1190.78 300.864 1184.39H300.858Z" fill="#123A1B"/>
<path id="Vector_15" d="M304.554 1186.04C309.273 1178.67 315.481 1171.95 323.826 1166.36C331.495 1161.22 341.746 1156.93 357 1158.05C348.848 1158.04 341.739 1159.21 336.305 1161.47C332.473 1163.06 329.486 1165.17 326.698 1167.38C320.149 1172.56 314.637 1178.29 310.201 1184.49C307.96 1187.61 305.996 1190.87 304.309 1194.23C303.465 1195.91 302.693 1197.62 301.991 1199.36C301.656 1200.2 301.334 1201.04 301.031 1201.89C300.8 1202.54 300.935 1204.35 300.104 1204.67C300.072 1204.68 299.885 1204.96 299.84 1205C298.623 1204.52 297.426 1203.93 296.241 1203.39C298.366 1197.36 301.051 1191.52 304.554 1186.03V1186.04Z" fill="#123A1B"/>
</g>
<g id="yellowflower">
<path id="Vector_16" d="M261.269 1125.82C260.984 1124.81 260.365 1123.97 259.367 1123.6C258.773 1123.38 258.152 1123.34 257.526 1123.36C256.497 1123.39 256.039 1123.52 255.654 1124.67C255.35 1125.57 254.919 1126.44 254.803 1127.39C254.605 1129 255.333 1130.6 255.723 1132.08C255.939 1132.91 256.31 1133.6 256.596 1134.4C257.403 1136.61 257.143 1136.29 257.216 1138.71C257.295 1141.43 254.176 1201.7 254.176 1201.7L257.628 1201.96C257.854 1198.71 258.967 1164.38 258.862 1160.94C258.65 1153.86 258.676 1146.77 258.636 1139.68C258.631 1138.27 258.606 1136.87 258.588 1135.46C258.582 1135.18 258.579 1134.89 258.669 1134.63C258.737 1134.41 258.866 1134.22 258.982 1134.03C259.835 1132.63 260.313 1130.99 260.743 1129.4C261.016 1128.4 261.552 1126.87 261.261 1125.83L261.269 1125.82Z" fill="#123A1B"/>
<path id="Vector_17" d="M256.872 1110.36C256.172 1110.35 256.975 1101.33 258.004 1098.81C258.464 1097.68 259.89 1094.63 258.837 1093.83C257.276 1092.64 255.679 1094.3 251.008 1095.57C245.284 1097.14 236.454 1097.3 236.354 1099.52C236.188 1103.08 245.398 1110.73 244.591 1111.38C244.466 1111.48 234.061 1105.17 231.609 1105.37C228.151 1105.66 224.554 1107.59 222.946 1112.1C222.535 1113.24 221.704 1115.73 223.106 1117.54C224.455 1119.28 227.613 1116.81 230.936 1115.8C235.841 1114.29 240.173 1115.74 240.304 1116.11C240.44 1116.5 232.561 1120.57 230.642 1122.37C230.642 1122.37 228.19 1125.06 228.81 1126.89C229.349 1128.48 243.331 1134.95 247.788 1135.67C252.239 1136.39 256.256 1124.44 257.29 1123.97C260.203 1122.63 263.617 1131.06 269.818 1131.11C273.825 1131.14 276.966 1128.75 280.02 1126.44C283.551 1123.77 287.827 1120.52 287.604 1116.53C287.403 1112.98 283.721 1110.4 280.987 1109.45C274.872 1107.32 271.832 1111.63 271.164 1110.27C270.575 1109.07 272.083 1108.01 276.915 1104.88C280.75 1102.39 283.798 1105.09 284.286 1104.26C284.9 1103.21 273.17 1095.1 267.766 1095.27C256.944 1095.63 257.99 1110.38 256.891 1110.36L256.872 1110.36Z" fill="#F5A736"/>
<path id="Vector_18" d="M256.709 1120.86C262.367 1121.82 267.322 1120.44 267.777 1117.78C268.233 1115.11 264.015 1112.17 258.357 1111.2C252.699 1110.24 247.743 1111.62 247.288 1114.28C246.833 1116.95 251.051 1119.89 256.709 1120.86Z" fill="#701538"/>
<path id="Vector_19" d="M256.8 1173.88C259.519 1168.43 263.318 1163.34 268.67 1158.87C273.593 1154.75 280.358 1151.04 290.981 1150.7" fill="#123A1B"/>
<path id="Vector_20" d="M254.091 1177.98C253.369 1170.31 251.205 1162.55 246.926 1154.8C242.988 1147.68 236.684 1140.2 224.293 1134.93C230.682 1138.2 235.779 1141.99 239.126 1145.94C241.487 1148.74 242.971 1151.6 244.267 1154.45C247.309 1161.14 249.321 1167.85 250.298 1174.48C250.792 1177.84 251.282 1178.43 252.01 1181.52C252.389 1183.13 252.718 1186.15 254.192 1190.79C254.434 1191.54 255.754 1196.18 255.645 1196.97C255.567 1197.58 257.431 1196.41 257.957 1197C257.976 1197.03 255.631 1196.92 255.645 1196.97C256.789 1197.09 256.813 1196.95 257.957 1197C258.72 1191.42 254.633 1183.69 254.097 1177.98L254.091 1177.98Z" fill="#123A1B"/>
</g>
<g id="threebushes">
<g id="Group">
<path id="Vector_21" d="M284.584 1179.59C286.356 1173.27 289.349 1167.08 294.115 1161.24C298.496 1155.88 304.92 1150.56 316.117 1148.03C310.259 1149.79 305.41 1152.19 302.002 1155C299.597 1156.98 297.915 1159.15 296.4 1161.35C292.833 1166.5 290.126 1171.82 288.294 1177.24C287.366 1179.98 286.665 1182.74 286.197 1185.52C285.964 1186.92 285.783 1188.31 285.655 1189.71C285.594 1190.39 285.549 1191.06 285.519 1191.73C285.496 1192.25 285.986 1193.52 285.459 1193.94C285.436 1193.95 285.361 1194.19 285.345 1194.23C284.365 1194.15 283.377 1194 282.412 1193.87C282.623 1189.07 283.272 1184.29 284.584 1179.59V1179.59Z" fill="#346456"/>
<path id="Vector_22" d="M279.102 1179.83C278.009 1173.36 275.106 1167.24 271.562 1160.59C269.066 1155.89 262.951 1144.87 257.205 1141.64C258.939 1143.93 263.818 1150 265.507 1153.13C266.985 1155.88 268.018 1158.1 269.277 1160.45C270.235 1162.24 274.412 1171.52 275.664 1177.1C276.297 1179.92 276.697 1182.75 276.878 1185.57C276.968 1186.98 276.998 1188.39 276.976 1189.79C276.961 1190.47 276.938 1191.14 276.9 1191.81C276.87 1192.33 276.244 1193.54 276.727 1194C276.742 1194.02 276.795 1194.27 276.81 1194.31C277.79 1194.34 278.793 1194.29 279.766 1194.26C280.067 1189.47 279.924 1184.64 279.11 1179.83H279.102Z" fill="#346456"/>
<path id="Vector_23" d="M279.652 1179.73C280.361 1173.2 282.292 1166.62 286.032 1160.07C289.47 1154.04 294.929 1147.74 305.561 1143.39C300.079 1146.11 295.691 1149.27 292.788 1152.6C290.744 1154.96 289.44 1157.38 288.309 1159.79C285.64 1165.46 283.845 1171.15 282.933 1176.8C282.473 1179.65 282.239 1182.5 282.224 1185.32C282.224 1186.73 282.269 1188.14 282.382 1189.54C282.435 1190.21 282.503 1190.88 282.578 1191.55C282.638 1192.07 283.332 1193.23 282.88 1193.73C282.865 1193.75 282.827 1194 282.812 1194.04C281.839 1194.13 280.836 1194.13 279.856 1194.17C279.275 1189.41 279.125 1184.58 279.652 1179.73V1179.73Z" fill="#346456"/>
<path id="Vector_24" d="M276.297 1174.4C274.088 1167.48 270.672 1160.82 265.507 1154.67C260.756 1149.02 253.985 1143.6 242.637 1141.65C248.601 1143.16 253.608 1145.45 257.197 1148.32C259.731 1150.34 261.563 1152.64 263.23 1154.96C267.151 1160.44 270.22 1166.16 272.421 1172.07C273.537 1175.05 274.427 1178.08 275.091 1181.16C275.422 1182.7 275.701 1184.24 275.92 1185.79C276.026 1186.54 276.116 1187.29 276.199 1188.04C276.259 1188.62 275.852 1190.07 276.41 1190.5C276.433 1190.51 276.523 1190.78 276.546 1190.82C277.519 1190.66 278.491 1190.4 279.449 1190.18C278.906 1184.84 277.926 1179.55 276.282 1174.4H276.297Z" fill="#346456"/>
<path id="Vector_25" d="M293.806 1179.46C295.578 1173.14 298.571 1166.96 303.337 1161.11C307.718 1155.75 314.142 1150.43 325.339 1147.9C319.48 1149.66 314.632 1152.06 311.224 1154.87C308.818 1156.86 307.137 1159.03 305.621 1161.22C302.055 1166.37 299.348 1171.69 297.515 1177.11C296.588 1179.85 295.887 1182.61 295.419 1185.4C295.186 1186.79 295.005 1188.18 294.876 1189.59C294.816 1190.26 294.771 1190.94 294.741 1191.61C294.718 1192.13 295.208 1193.39 294.68 1193.81C294.658 1193.82 294.582 1194.06 294.567 1194.1C293.587 1194.03 292.599 1193.87 291.634 1193.74C291.845 1188.95 292.494 1184.16 293.806 1179.46V1179.46Z" fill="#346456"/>
<path id="Vector_26" d="M288.324 1179.7C287.23 1173.23 284.327 1167.11 280.784 1160.46C278.288 1155.76 272.172 1144.74 266.427 1141.51C268.161 1143.81 273.04 1149.87 274.729 1153C276.207 1155.75 277.24 1157.97 278.499 1160.32C279.456 1162.11 283.634 1171.4 284.885 1176.97C285.519 1179.79 285.918 1182.62 286.099 1185.44C286.19 1186.85 286.22 1188.26 286.197 1189.66C286.182 1190.34 286.16 1191.01 286.122 1191.68C286.092 1192.2 285.466 1193.41 285.949 1193.88C285.964 1193.89 286.016 1194.14 286.032 1194.18C287.012 1194.21 288.015 1194.16 288.987 1194.13C289.289 1189.35 289.146 1184.51 288.331 1179.7H288.324Z" fill="#346456"/>
<path id="Vector_27" d="M288.882 1179.61C289.591 1173.07 291.521 1166.49 295.261 1159.94C298.699 1153.92 304.159 1147.61 314.79 1143.26C309.309 1145.98 304.92 1149.14 302.017 1152.48C299.974 1154.83 298.669 1157.25 297.538 1159.66C294.869 1165.33 293.074 1171.02 292.162 1176.67C291.702 1179.52 291.468 1182.37 291.453 1185.19C291.453 1186.6 291.498 1188.01 291.611 1189.41C291.664 1190.08 291.732 1190.75 291.807 1191.43C291.868 1191.95 292.561 1193.11 292.109 1193.6C292.094 1193.63 292.056 1193.87 292.041 1193.91C291.068 1194 290.066 1194 289.085 1194.04C288.505 1189.28 288.354 1184.45 288.882 1179.6V1179.61Z" fill="#346456"/>
<path id="Vector_28" d="M285.519 1174.26C283.31 1167.33 279.894 1160.68 274.729 1154.53C269.978 1148.87 263.207 1143.45 251.859 1141.51C257.823 1143.02 262.83 1145.31 266.419 1148.18C268.953 1150.2 270.785 1152.5 272.451 1154.82C276.372 1160.29 279.441 1166.01 281.643 1171.92C282.759 1174.91 283.649 1177.94 284.312 1181.02C284.644 1182.55 284.923 1184.1 285.142 1185.65C285.247 1186.4 285.338 1187.14 285.421 1187.9C285.481 1188.48 285.074 1189.93 285.632 1190.36C285.655 1190.37 285.745 1190.63 285.768 1190.67C286.74 1190.51 287.713 1190.26 288.671 1190.04C288.128 1184.7 287.148 1179.41 285.504 1174.26H285.519Z" fill="#346456"/>
<path id="Vector_29" d="M276.297 1174.4C274.088 1167.48 270.672 1160.82 265.507 1154.67C260.756 1149.02 253.985 1143.6 242.637 1141.65C248.601 1143.16 253.608 1145.45 257.197 1148.32C259.731 1150.34 261.563 1152.64 263.23 1154.96C267.151 1160.44 270.22 1166.16 272.421 1172.07C273.537 1175.05 274.427 1178.08 275.091 1181.16C275.422 1182.7 275.701 1184.24 275.92 1185.79C276.026 1186.54 276.116 1187.29 276.199 1188.04C276.259 1188.62 275.852 1190.07 276.41 1190.5C276.433 1190.51 276.523 1190.78 276.546 1190.82C277.519 1190.66 278.491 1190.4 279.449 1190.18C278.906 1184.84 277.926 1179.55 276.282 1174.4H276.297Z" fill="#346456"/>
</g>
<g id="Group_2">
<path id="Vector_30" d="M313.237 1178.09C315.009 1171.77 318.003 1165.58 322.768 1159.74C327.149 1154.38 333.573 1149.06 344.771 1146.53C338.912 1148.29 334.063 1150.69 330.655 1153.5C328.25 1155.48 326.568 1157.65 325.053 1159.85C321.486 1165 318.779 1170.32 316.947 1175.74C316.019 1178.48 315.318 1181.24 314.851 1184.02C314.617 1185.42 314.436 1186.81 314.308 1188.21C314.247 1188.89 314.202 1189.56 314.172 1190.23C314.149 1190.75 314.64 1192.02 314.112 1192.44C314.089 1192.45 314.014 1192.69 313.999 1192.73C313.018 1192.65 312.031 1192.5 311.065 1192.37C311.277 1187.57 311.925 1182.79 313.237 1178.09V1178.09Z" fill="#346456"/>
<path id="Vector_31" d="M307.755 1178.33C306.662 1171.86 303.759 1165.74 300.215 1159.09C297.719 1154.39 291.604 1143.37 285.858 1140.14C287.592 1142.43 292.471 1148.5 294.16 1151.63C295.638 1154.38 296.671 1156.6 297.93 1158.95C298.888 1160.74 303.065 1170.02 304.317 1175.6C304.95 1178.42 305.35 1181.25 305.531 1184.07C305.621 1185.48 305.652 1186.89 305.629 1188.29C305.614 1188.97 305.591 1189.64 305.554 1190.31C305.523 1190.83 304.897 1192.04 305.38 1192.5C305.395 1192.52 305.448 1192.77 305.463 1192.81C306.443 1192.84 307.446 1192.79 308.419 1192.76C308.72 1187.97 308.577 1183.14 307.763 1178.33H307.755Z" fill="#346456"/>
<path id="Vector_32" d="M308.313 1178.23C309.022 1171.7 310.952 1165.12 314.692 1158.57C318.131 1152.54 323.59 1146.24 334.222 1141.89C328.74 1144.61 324.352 1147.77 321.449 1151.1C319.405 1153.46 318.101 1155.88 316.97 1158.29C314.3 1163.96 312.506 1169.65 311.593 1175.3C311.133 1178.15 310.9 1181 310.885 1183.82C310.885 1185.23 310.93 1186.64 311.043 1188.04C311.096 1188.71 311.163 1189.38 311.239 1190.05C311.299 1190.57 311.993 1191.73 311.541 1192.23C311.525 1192.25 311.488 1192.5 311.473 1192.54C310.5 1192.63 309.497 1192.63 308.517 1192.67C307.936 1187.91 307.785 1183.08 308.313 1178.23V1178.23Z" fill="#346456"/>
<path id="Vector_33" d="M304.95 1172.9C302.741 1165.98 299.325 1159.32 294.16 1153.17C289.41 1147.52 282.638 1142.1 271.29 1140.15C277.255 1141.66 282.261 1143.95 285.851 1146.82C288.384 1148.84 290.216 1151.14 291.883 1153.46C295.804 1158.94 298.873 1164.66 301.075 1170.57C302.19 1173.55 303.08 1176.58 303.744 1179.66C304.076 1181.2 304.355 1182.74 304.573 1184.29C304.679 1185.04 304.769 1185.79 304.852 1186.54C304.913 1187.12 304.505 1188.57 305.063 1189C305.086 1189.01 305.176 1189.28 305.199 1189.31C306.172 1189.16 307.144 1188.9 308.102 1188.68C307.559 1183.34 306.579 1178.05 304.935 1172.9H304.95Z" fill="#346456"/>
<path id="Vector_34" d="M322.466 1177.95C324.238 1171.63 327.232 1165.45 331.997 1159.61C336.378 1154.24 342.803 1148.93 354 1146.39C348.141 1148.16 343.293 1150.55 339.885 1153.37C337.479 1155.35 335.798 1157.52 334.282 1159.71C330.716 1164.86 328.009 1170.18 326.176 1175.6C325.249 1178.34 324.548 1181.11 324.08 1183.89C323.846 1185.28 323.665 1186.68 323.537 1188.08C323.477 1188.75 323.432 1189.43 323.401 1190.1C323.379 1190.62 323.869 1191.89 323.341 1192.3C323.318 1192.32 323.243 1192.56 323.228 1192.59C322.248 1192.52 321.26 1192.36 320.295 1192.23C320.506 1187.44 321.154 1182.65 322.466 1177.95V1177.95Z" fill="#346456"/>
<path id="Vector_35" d="M316.985 1178.2C315.891 1171.72 312.988 1165.61 309.444 1158.95C306.948 1154.25 300.833 1143.23 295.088 1140C296.822 1142.3 301.7 1148.36 303.389 1151.5C304.867 1154.24 305.9 1156.46 307.16 1158.82C308.117 1160.6 312.295 1169.89 313.546 1175.47C314.18 1178.29 314.579 1181.11 314.76 1183.93C314.851 1185.34 314.881 1186.75 314.858 1188.15C314.843 1188.83 314.821 1189.5 314.783 1190.17C314.753 1190.69 314.127 1191.9 314.609 1192.37C314.624 1192.38 314.677 1192.63 314.692 1192.68C315.673 1192.71 316.675 1192.65 317.648 1192.62C317.95 1187.84 317.806 1183.01 316.992 1178.2H316.985Z" fill="#346456"/>
<path id="Vector_36" d="M317.535 1178.1C318.244 1171.56 320.174 1164.98 323.914 1158.43C327.353 1152.41 332.812 1146.11 343.444 1141.76C337.962 1144.47 333.573 1147.64 330.67 1150.97C328.627 1153.32 327.322 1155.74 326.191 1158.15C323.522 1163.82 321.727 1169.51 320.815 1175.17C320.355 1178.02 320.121 1180.86 320.106 1183.68C320.106 1185.09 320.152 1186.5 320.265 1187.91C320.317 1188.58 320.385 1189.25 320.461 1189.92C320.521 1190.44 321.215 1191.6 320.762 1192.1C320.747 1192.12 320.71 1192.36 320.694 1192.41C319.722 1192.5 318.719 1192.5 317.739 1192.53C317.158 1187.77 317.007 1182.95 317.535 1178.09V1178.1Z" fill="#346456"/>
<path id="Vector_37" d="M314.18 1172.75C311.97 1165.83 308.554 1159.17 303.389 1153.02C298.639 1147.36 291.868 1141.94 280.52 1140C286.484 1141.51 291.491 1143.8 295.08 1146.67C297.613 1148.69 299.446 1150.99 301.112 1153.31C305.033 1158.79 308.102 1164.51 310.304 1170.42C311.42 1173.4 312.31 1176.43 312.973 1179.51C313.305 1181.05 313.584 1182.59 313.803 1184.14C313.908 1184.89 313.999 1185.64 314.082 1186.39C314.142 1186.97 313.735 1188.42 314.293 1188.85C314.315 1188.86 314.406 1189.13 314.428 1189.16C315.401 1189.01 316.374 1188.75 317.331 1188.53C316.789 1183.19 315.808 1177.9 314.164 1172.75H314.18Z" fill="#346456"/>
<path id="Vector_38" d="M304.95 1172.9C302.741 1165.98 299.325 1159.32 294.16 1153.17C289.41 1147.52 282.638 1142.1 271.29 1140.15C277.255 1141.66 282.261 1143.95 285.851 1146.82C288.384 1148.84 290.216 1151.14 291.883 1153.46C295.804 1158.94 298.873 1164.66 301.075 1170.57C302.19 1173.55 303.08 1176.58 303.744 1179.66C304.076 1181.2 304.355 1182.74 304.573 1184.29C304.679 1185.04 304.769 1185.79 304.852 1186.54C304.913 1187.12 304.505 1188.57 305.063 1189C305.086 1189.01 305.176 1189.28 305.199 1189.31C306.172 1189.16 307.144 1188.9 308.102 1188.68C307.559 1183.34 306.579 1178.05 304.935 1172.9H304.95Z" fill="#346456"/>
</g>
<g id="Group_3">
<path id="Vector_39" d="M258.947 1178.84C260.719 1172.52 263.712 1166.34 268.478 1160.5C272.859 1155.13 279.283 1149.81 290.48 1147.28C284.622 1149.05 279.773 1151.44 276.365 1154.25C273.96 1156.24 272.278 1158.41 270.762 1160.6C267.196 1165.75 264.489 1171.07 262.657 1176.49C261.729 1179.23 261.028 1182 260.56 1184.78C260.327 1186.17 260.146 1187.57 260.017 1188.97C259.957 1189.64 259.912 1190.32 259.882 1190.99C259.859 1191.51 260.349 1192.78 259.821 1193.19C259.799 1193.2 259.723 1193.45 259.708 1193.48C258.728 1193.41 257.74 1193.25 256.775 1193.12C256.986 1188.33 257.635 1183.54 258.947 1178.84V1178.84Z" fill="#346456"/>
<path id="Vector_40" d="M253.465 1179.09C252.372 1172.61 249.469 1166.5 245.925 1159.84C243.429 1155.14 237.314 1144.12 231.568 1140.89C233.302 1143.19 238.181 1149.25 239.87 1152.39C241.348 1155.13 242.381 1157.35 243.64 1159.7C244.598 1161.49 248.775 1170.78 250.027 1176.36C250.66 1179.18 251.06 1182 251.241 1184.82C251.331 1186.23 251.361 1187.64 251.339 1189.04C251.323 1189.72 251.301 1190.39 251.263 1191.06C251.233 1191.58 250.607 1192.79 251.09 1193.26C251.105 1193.27 251.158 1193.52 251.173 1193.57C252.153 1193.6 253.156 1193.54 254.128 1193.51C254.43 1188.73 254.287 1183.89 253.472 1179.09H253.465Z" fill="#346456"/>
<path id="Vector_41" d="M254.023 1178.99C254.732 1172.45 256.662 1165.87 260.402 1159.32C263.84 1153.3 269.3 1147 279.931 1142.65C274.45 1145.36 270.061 1148.53 267.158 1151.86C265.115 1154.21 263.81 1156.63 262.679 1159.04C260.01 1164.71 258.215 1170.4 257.303 1176.06C256.843 1178.9 256.609 1181.75 256.594 1184.57C256.594 1185.98 256.639 1187.39 256.752 1188.79C256.805 1189.47 256.873 1190.14 256.949 1190.81C257.009 1191.33 257.703 1192.49 257.25 1192.99C257.235 1193.01 257.197 1193.25 257.182 1193.3C256.21 1193.39 255.207 1193.39 254.227 1193.42C253.646 1188.66 253.495 1183.83 254.023 1178.98V1178.99Z" fill="#346456"/>
<path id="Vector_42" d="M250.66 1173.66C248.451 1166.73 245.035 1160.07 239.87 1153.92C235.119 1148.27 228.348 1142.85 217 1140.9C222.964 1142.41 227.971 1144.7 231.56 1147.58C234.094 1149.6 235.926 1151.9 237.593 1154.22C241.514 1159.69 244.582 1165.41 246.784 1171.32C247.9 1174.31 248.79 1177.34 249.454 1180.41C249.785 1181.95 250.064 1183.5 250.283 1185.05C250.389 1185.79 250.479 1186.54 250.562 1187.29C250.622 1187.88 250.215 1189.32 250.773 1189.75C250.796 1189.77 250.886 1190.03 250.909 1190.07C251.881 1189.91 252.854 1189.65 253.812 1189.44C253.269 1184.1 252.289 1178.81 250.645 1173.66H250.66Z" fill="#346456"/>
<path id="Vector_43" d="M268.176 1178.71C269.948 1172.38 272.942 1166.2 277.707 1160.36C282.088 1154.99 288.512 1149.68 299.71 1147.15C293.851 1148.91 289.002 1151.31 285.594 1154.12C283.189 1156.1 281.507 1158.27 279.992 1160.47C276.425 1165.61 273.718 1170.94 271.886 1176.36C270.958 1179.09 270.257 1181.86 269.79 1184.64C269.556 1186.04 269.375 1187.43 269.247 1188.83C269.187 1189.5 269.141 1190.18 269.111 1190.85C269.089 1191.37 269.579 1192.64 269.051 1193.05C269.028 1193.07 268.953 1193.31 268.938 1193.35C267.957 1193.27 266.97 1193.11 266.005 1192.99C266.216 1188.19 266.864 1183.4 268.176 1178.71V1178.71Z" fill="#346456"/>
<path id="Vector_44" d="M262.694 1178.95C261.601 1172.47 258.698 1166.36 255.154 1159.7C252.658 1155.01 246.543 1143.99 240.797 1140.75C242.532 1143.05 247.41 1149.11 249.099 1152.25C250.577 1154.99 251.61 1157.22 252.869 1159.57C253.827 1161.36 258.004 1170.64 259.256 1176.22C259.889 1179.04 260.289 1181.87 260.47 1184.69C260.56 1186.1 260.591 1187.51 260.568 1188.91C260.553 1189.59 260.53 1190.26 260.493 1190.93C260.462 1191.45 259.837 1192.65 260.319 1193.12C260.334 1193.14 260.387 1193.39 260.402 1193.43C261.382 1193.46 262.385 1193.41 263.358 1193.38C263.659 1188.59 263.516 1183.76 262.702 1178.95H262.694Z" fill="#346456"/>
<path id="Vector_45" d="M263.245 1178.85C263.954 1172.32 265.884 1165.74 269.624 1159.18C273.062 1153.16 278.521 1146.86 289.153 1142.51C283.671 1145.22 279.283 1148.39 276.38 1151.72C274.337 1154.07 273.032 1156.49 271.901 1158.91C269.232 1164.57 267.437 1170.27 266.525 1175.92C266.065 1178.77 265.831 1181.62 265.816 1184.44C265.816 1185.85 265.861 1187.26 265.974 1188.66C266.027 1189.33 266.095 1190 266.17 1190.67C266.231 1191.19 266.924 1192.35 266.472 1192.85C266.457 1192.87 266.419 1193.11 266.404 1193.16C265.431 1193.25 264.429 1193.25 263.448 1193.29C262.868 1188.52 262.717 1183.7 263.245 1178.84V1178.85Z" fill="#346456"/>
<path id="Vector_46" d="M259.889 1173.51C257.68 1166.58 254.264 1159.92 249.099 1153.77C244.349 1148.12 237.577 1142.7 226.229 1140.75C232.194 1142.26 237.2 1144.55 240.79 1147.43C243.323 1149.45 245.155 1151.74 246.822 1154.07C250.743 1159.54 253.812 1165.26 256.014 1171.17C257.13 1174.16 258.019 1177.19 258.683 1180.26C259.015 1181.8 259.294 1183.34 259.512 1184.9C259.618 1185.64 259.708 1186.39 259.791 1187.14C259.852 1187.72 259.444 1189.17 260.002 1189.6C260.025 1189.62 260.115 1189.88 260.138 1189.92C261.111 1189.76 262.084 1189.5 263.041 1189.28C262.498 1183.95 261.518 1178.66 259.874 1173.51H259.889Z" fill="#346456"/>
<path id="Vector_47" d="M250.66 1173.66C248.451 1166.73 245.035 1160.07 239.87 1153.92C235.119 1148.27 228.348 1142.85 217 1140.9C222.964 1142.41 227.971 1144.7 231.56 1147.58C234.094 1149.6 235.926 1151.9 237.593 1154.22C241.514 1159.69 244.582 1165.41 246.784 1171.32C247.9 1174.31 248.79 1177.34 249.454 1180.41C249.785 1181.95 250.064 1183.5 250.283 1185.05C250.389 1185.79 250.479 1186.54 250.562 1187.29C250.622 1187.88 250.215 1189.32 250.773 1189.75C250.796 1189.77 250.886 1190.03 250.909 1190.07C251.881 1189.91 252.854 1189.65 253.812 1189.44C253.269 1184.1 252.289 1178.81 250.645 1173.66H250.66Z" fill="#346456"/>
</g>
</g>
<g id="leaves4">
<g id="Group_4">
<path id="Vector_48" d="M827.662 1112.37C825.601 1108.37 820.785 1103.99 819.895 1103.06C818.626 1101.74 817.346 1096.73 816.587 1094.32C815.535 1090.98 814.428 1077.39 814.222 1072.22C813.962 1065.84 814.07 1062.49 812.237 1059.73C809.243 1055.18 807.226 1053.85 797.876 1052.17C791.172 1050.95 789.187 1052.17 787.267 1045.93C784.621 1037.38 782.093 1028.16 778.959 1023.32C776.138 1018.97 772.678 1017.21 760.139 1015.2C756.831 1014.67 737.718 1009.44 731.72 1007.47C717.293 1002.7 709.733 993.082 708.258 994.351C705.633 996.629 723.823 1020.58 728.021 1026.11C738.369 1039.75 741.721 1041.55 744.216 1042.48C746.927 1043.5 750.962 1044.37 753.316 1048.03C755.507 1051.44 753.804 1053.47 755.854 1056.07C758.62 1059.57 762.862 1057.38 770.097 1060.68C772.548 1061.8 776.193 1063.46 778.492 1067C780.39 1069.94 780.26 1074.65 779.913 1083.96C779.382 1098.08 779.306 1099.34 780.596 1100.94C783.905 1105.1 789.599 1103.06 796.433 1108.45C797.984 1109.68 800.457 1113.67 801.987 1117.84C804.547 1124.84 801.726 1129.69 804.145 1134.78C806.065 1138.8 808.278 1138.66 814.786 1141.75C819.396 1143.94 824.559 1147.09 826.848 1145.07C827.206 1144.76 827.369 1144.41 827.456 1144.2C833.725 1130.14 830.916 1119.65 830.916 1119.65C830.102 1116.61 830.373 1117.63 827.662 1112.38V1112.37Z" fill="#147F5E"/>
<path id="Vector_49" d="M831.664 1165.07C823.193 1135.66 812.367 1107.03 798.201 1080.09C785.174 1055.32 768.068 1030.97 743.435 1019.95C756.657 1027.78 768.329 1038.63 777.397 1051.5C783.796 1060.59 788.873 1070.62 793.645 1080.74C804.85 1104.55 814.428 1129.17 822.325 1154.34C826.306 1167.07 829.864 1179.92 832.977 1192.89C834.528 1199.38 835.981 1205.89 837.305 1212.43C837.945 1215.57 838.563 1218.71 839.149 1221.86C839.604 1224.29 839.572 1230.22 840.971 1232.13C841.025 1232.2 841.361 1233.31 841.437 1233.5C843.357 1233.07 845.245 1232.26 847.11 1231.6C842.989 1209.23 837.988 1186.93 831.686 1165.07H831.664Z" fill="#507264"/>
</g>
<g id="Group_5">
<path id="Vector_50" d="M840.765 1173.73C840.765 1164.86 853.955 1169.22 859.248 1158.94C865.322 1147.13 868.121 1148.6 870.334 1131.59C870.963 1126.79 870.29 1121.58 869.629 1116.84C868.696 1110.15 864.802 1105.07 863.153 1098.69C862.697 1096.91 862.535 1094.96 863.316 1093.3C865.279 1089.1 870.692 1091.87 874.033 1090.2C881.463 1086.47 885.932 1077.96 884.977 1069.75C884.175 1062.85 879.782 1056.56 873.794 1053.04C873.046 1052.61 872.265 1052.2 871.711 1051.53C868.891 1048.13 883.036 1041.5 885.129 1039.92C891.692 1034.95 893.481 1030.85 894.74 1027.35C897.397 1019.96 897.137 1013.56 896.952 1008.86C896.649 1001.14 895.13 1000.14 895.477 993.342C895.575 991.488 895.965 985.847 898.438 979.296C902.332 968.948 908.635 963.611 908.049 963.036C907.268 962.266 898.406 974.046 882.916 982.994C868.837 991.13 862.958 993.342 857.046 997.779C854.042 1000.04 848.271 1002.25 845.961 1011.09C845.288 1013.65 843.748 1022.91 844.485 1027.35C845.538 1033.68 846.459 1042.27 845.223 1045.09C844.084 1047.7 842.37 1047.32 834.137 1050.27C829.798 1051.82 824.494 1053.06 821.522 1056.84C818.691 1060.45 818.745 1065.59 819.993 1070.02C821.349 1074.85 823.496 1079.58 825.275 1084.27C827.119 1089.15 831.035 1091.46 829.733 1097.52C828.844 1101.65 825.959 1105.06 822.965 1108.04C818.843 1112.15 813.647 1116.61 812.714 1122.71C811.413 1131.15 813.723 1139.51 817.509 1147.01C819.418 1150.8 821.685 1154.41 824.071 1157.91C826.241 1161.1 827.629 1164.96 831.436 1166.56C832.217 1166.88 833.053 1167.11 833.725 1167.63C834.886 1168.53 834.647 1170.14 834.723 1171.44C834.745 1171.85 834.799 1172.27 835.005 1172.63C835.526 1173.58 840.819 1175.38 840.819 1173.73H840.765Z" fill="#5DB6A0"/>
</g>
</g>
<g id="circleleaf">
<path id="Vector_51" d="M232.504 1121.86C238.984 1121.44 242.567 1124.57 242.968 1127.68C243.37 1130.79 239.948 1134.67 233.425 1135.55C229.706 1136.05 215.35 1131.14 214.726 1130.27C214.751 1129.47 227.952 1122.15 232.51 1121.85L232.504 1121.86Z" fill="#246D61"/>
<path id="Vector_52" d="M218.42 1139.57C224.894 1141.08 227.556 1144.54 227.099 1147.08C226.642 1149.63 222.219 1151.69 215.573 1150.52C211.786 1149.86 199.036 1141.96 198.66 1141.1C198.9 1140.48 213.868 1138.5 218.42 1139.57Z" fill="#246D61"/>
<path id="Vector_53" d="M205.615 1157.93C211.199 1161.54 212.533 1165.7 211.242 1167.94C209.951 1170.18 205.09 1170.62 199.234 1167.28C195.898 1165.38 186.565 1153.63 186.503 1152.7C186.935 1152.2 201.693 1155.39 205.621 1157.93H205.615Z" fill="#246D61"/>
<path id="Vector_54" d="M192.359 1174.6C197.943 1178.2 199.277 1182.36 197.986 1184.6C196.695 1186.85 191.834 1187.29 185.978 1183.95C182.642 1182.05 173.308 1170.3 173.247 1169.36C173.679 1168.86 188.436 1172.06 192.365 1174.6H192.359Z" fill="#246D61"/>
<path id="Vector_55" d="M166.656 1153.5C162.239 1148.54 157.927 1147.85 155.907 1149.47C153.888 1151.09 154.19 1155.95 158.384 1161.24C160.775 1164.24 173.809 1171.67 174.742 1171.59C175.168 1171.09 169.763 1156.99 166.656 1153.5Z" fill="#246D61"/>
<path id="Vector_56" d="M182.482 1135.31C178.874 1129.73 174.717 1128.39 172.475 1129.68C170.232 1130.96 169.787 1135.82 173.123 1141.68C175.026 1145.02 186.769 1154.36 187.701 1154.43C188.202 1154 185.014 1139.24 182.475 1135.31H182.482Z" fill="#246D61"/>
<path id="Vector_57" d="M197.313 1120.19C194.527 1114.16 190.605 1112.25 188.202 1113.21C185.799 1114.17 184.674 1118.92 187.151 1125.19C188.566 1128.76 198.876 1139.66 199.79 1139.86C200.346 1139.5 199.271 1124.44 197.313 1120.19Z" fill="#246D61"/>
<path id="Vector_58" d="M160.411 1182.73C169.553 1169.7 179.794 1157.48 191.5 1146.71C202.261 1136.8 215.078 1127.85 229.669 1126.88C221.527 1128.35 213.713 1131.6 206.918 1136.33C202.125 1139.66 197.869 1143.71 193.761 1147.86C184.1 1157.62 175.149 1168.07 166.995 1179.11C162.875 1184.69 158.959 1190.42 155.253 1196.28C153.399 1199.21 151.602 1202.17 149.854 1205.17C149.014 1206.61 148.192 1208.05 147.377 1209.5C146.753 1210.62 145.808 1213.57 144.776 1214.27C144.739 1214.29 144.381 1214.79 144.313 1214.86C143.38 1214.3 142.534 1213.56 141.669 1212.89C147.414 1202.55 153.603 1192.42 160.404 1182.73L160.411 1182.73Z" fill="#3C837C"/>
</g>
<g id="leaves2">
<g id="Group_6">
<path id="Vector_59" d="M129.076 1160.83C128.119 1158.98 125.895 1156.95 125.481 1156.52C124.894 1155.91 124.301 1153.59 123.949 1152.48C123.461 1150.93 122.948 1144.64 122.856 1142.25C122.738 1139.3 122.782 1137.75 121.942 1136.47C120.558 1134.37 119.625 1133.75 115.301 1132.97C112.2 1132.41 111.286 1132.97 110.397 1130.09C109.173 1126.14 108.006 1121.87 106.554 1119.63C105.251 1117.62 103.651 1116.8 97.8445 1115.88C96.3126 1115.63 87.4731 1113.21 84.6934 1112.29C78.022 1110.09 74.5196 1105.64 73.8401 1106.23C72.6232 1107.28 81.0365 1118.36 82.9823 1120.92C87.7696 1127.23 89.32 1128.06 90.4752 1128.5C91.7291 1128.96 93.5946 1129.37 94.688 1131.07C95.701 1132.64 94.9104 1133.58 95.8617 1134.78C97.1403 1136.4 99.1047 1135.39 102.453 1136.91C103.583 1137.43 105.276 1138.2 106.332 1139.84C107.209 1141.2 107.147 1143.38 106.987 1147.68C106.74 1154.22 106.709 1154.8 107.302 1155.54C108.828 1157.46 111.471 1156.51 114.628 1159.01C115.344 1159.58 116.493 1161.43 117.198 1163.36C118.384 1166.6 117.074 1168.84 118.198 1171.19C119.088 1173.06 120.107 1172.98 123.121 1174.42C125.253 1175.43 127.643 1176.89 128.706 1175.95C128.872 1175.81 128.947 1175.65 128.99 1175.55C131.887 1169.05 130.59 1164.19 130.59 1164.19C130.213 1162.79 130.336 1163.26 129.089 1160.83L129.076 1160.83Z" fill="#147F5E"/>
<path id="Vector_60" d="M130.929 1185.21C127.007 1171.6 122.003 1158.36 115.449 1145.89C109.427 1134.43 101.514 1123.17 90.1169 1118.07C96.2384 1121.69 101.631 1126.71 105.832 1132.66C108.79 1136.87 111.144 1141.5 113.349 1146.19C118.532 1157.2 122.967 1168.59 126.618 1180.24C128.458 1186.12 130.108 1192.08 131.541 1198.07C132.257 1201.08 132.931 1204.09 133.542 1207.11C133.839 1208.56 134.123 1210.02 134.395 1211.47C134.605 1212.6 134.592 1215.34 135.235 1216.22C135.26 1216.25 135.414 1216.77 135.451 1216.85C136.341 1216.66 137.212 1216.28 138.07 1215.98C136.161 1205.63 133.851 1195.31 130.936 1185.2L130.929 1185.21Z" fill="#507264"/>
</g>
<g id="Group_7">
<path id="Vector_61" d="M141.19 1161.51C142.147 1159.67 144.371 1157.64 144.785 1157.21C145.372 1156.6 145.965 1154.28 146.317 1153.16C146.805 1151.62 147.317 1145.33 147.41 1142.94C147.527 1139.98 147.484 1138.43 148.324 1137.16C149.708 1135.06 150.641 1134.44 154.965 1133.66C158.066 1133.1 158.98 1133.66 159.869 1130.77C161.092 1126.82 162.26 1122.55 163.711 1120.32C165.015 1118.31 166.615 1117.49 172.421 1116.56C173.953 1116.31 182.793 1113.9 185.572 1112.98C192.244 1110.78 195.746 1106.33 196.426 1106.91C197.643 1107.96 189.229 1119.04 187.284 1121.61C182.496 1127.91 180.946 1128.75 179.791 1129.18C178.537 1129.65 176.671 1130.05 175.578 1131.75C174.565 1133.33 175.355 1134.26 174.404 1135.47C173.125 1137.09 171.161 1136.07 167.813 1137.6C166.683 1138.12 164.99 1138.89 163.934 1140.52C163.057 1141.88 163.119 1144.06 163.279 1148.37C163.526 1154.9 163.557 1155.48 162.964 1156.22C161.438 1158.15 158.794 1157.2 155.638 1159.7C154.921 1160.26 153.772 1162.11 153.068 1164.04C151.882 1167.28 153.192 1169.52 152.068 1171.88C151.178 1173.74 150.159 1173.67 147.144 1175.1C145.013 1176.12 142.623 1177.57 141.56 1176.64C141.393 1176.5 141.319 1176.33 141.276 1176.24C138.379 1169.73 139.676 1164.88 139.676 1164.88C140.053 1163.48 139.929 1163.95 141.177 1161.52L141.19 1161.51Z" fill="#147F5E"/>
<path id="Vector_62" d="M139.336 1185.89C143.259 1172.29 148.262 1159.04 154.816 1146.58C160.839 1135.12 168.752 1123.86 180.149 1118.75C174.027 1122.38 168.635 1127.4 164.434 1133.35C161.475 1137.55 159.122 1142.19 156.917 1146.87C151.734 1157.89 147.299 1169.28 143.648 1180.93C141.807 1186.81 140.158 1192.76 138.725 1198.76C138.008 1201.76 137.335 1204.77 136.724 1207.8C136.427 1209.25 136.143 1210.7 135.871 1212.16C135.661 1213.28 135.673 1216.03 135.031 1216.91C135.006 1216.94 134.852 1217.46 134.815 1217.54C133.925 1217.35 133.054 1216.96 132.196 1216.66C134.104 1206.32 136.415 1196 139.33 1185.89L139.336 1185.89Z" fill="#507264"/>
</g>
<g id="Group_8">
<path id="Vector_63" d="M135.142 1188.21C135.142 1184.11 141.245 1186.12 143.691 1181.37C146.502 1175.91 147.793 1176.58 148.818 1168.72C149.109 1166.5 148.8 1164.09 148.491 1161.9C148.059 1158.81 146.255 1156.45 145.495 1153.5C145.285 1152.68 145.211 1151.78 145.569 1151C146.477 1149.06 148.979 1150.34 150.529 1149.57C153.97 1147.85 156.033 1143.91 155.589 1140.11C155.218 1136.92 153.186 1134.01 150.412 1132.39C150.066 1132.18 149.702 1131.99 149.448 1131.69C148.145 1130.12 154.687 1127.06 155.657 1126.32C158.69 1124.02 159.523 1122.13 160.104 1120.51C161.333 1117.09 161.216 1114.13 161.129 1111.96C160.987 1108.38 160.289 1107.93 160.444 1104.78C160.487 1103.92 160.672 1101.31 161.809 1098.28C163.613 1093.49 166.528 1091.02 166.257 1090.75C165.892 1090.39 161.797 1095.84 154.631 1099.99C148.12 1103.75 145.396 1104.78 142.66 1106.83C141.27 1107.87 138.601 1108.89 137.533 1112.98C137.224 1114.16 136.507 1118.45 136.847 1120.5C137.335 1123.43 137.761 1127.4 137.187 1128.71C136.662 1129.92 135.871 1129.74 132.054 1131.11C130.046 1131.82 127.594 1132.4 126.216 1134.15C124.907 1135.82 124.931 1138.2 125.506 1140.24C126.136 1142.48 127.13 1144.67 127.946 1146.84C128.798 1149.1 130.608 1150.17 130.009 1152.97C129.595 1154.88 128.261 1156.45 126.877 1157.84C124.968 1159.74 122.565 1161.8 122.133 1164.63C121.534 1168.53 122.603 1172.4 124.351 1175.87C125.234 1177.62 126.278 1179.29 127.384 1180.91C128.391 1182.38 129.033 1184.17 130.793 1184.91C131.152 1185.06 131.541 1185.17 131.85 1185.41C132.387 1185.82 132.276 1186.56 132.313 1187.17C132.325 1187.36 132.35 1187.55 132.443 1187.72C132.684 1188.15 135.13 1188.99 135.13 1188.22L135.142 1188.21Z" fill="#5DB6A0"/>
<path id="Vector_64" d="M133.808 1166.34C135.062 1153.07 137.446 1139.94 141.498 1127.24C145.223 1115.58 150.845 1103.75 161.055 1096.99C155.743 1101.44 151.4 1107.04 148.417 1113.3C146.31 1117.72 144.89 1122.42 143.623 1127.14C140.64 1138.25 138.459 1149.57 137.1 1160.98C136.415 1166.74 135.939 1172.54 135.667 1178.34C135.531 1181.24 135.451 1184.14 135.426 1187.05C135.414 1188.44 135.414 1189.83 135.426 1191.23C135.433 1192.31 135.97 1194.84 135.507 1195.77C135.488 1195.81 135.433 1196.31 135.42 1196.39C134.512 1196.38 133.586 1196.18 132.677 1196.06C132.572 1186.15 132.875 1176.21 133.808 1166.34V1166.34Z" fill="#3C837C"/>
</g>
</g>
<g id="leaves1">
<g id="Group_9">
<path id="Vector_65" d="M27.2008 1149.34C25.7677 1146.56 22.4197 1143.52 21.7958 1142.87C20.9186 1141.94 20.0229 1138.47 19.4917 1136.79C18.7566 1134.47 17.9907 1125.03 17.8486 1121.43C17.6694 1117 17.7374 1114.67 16.4711 1112.74C14.3894 1109.58 12.9872 1108.66 6.48879 1107.48C1.82503 1106.64 0.453705 1107.48 -0.886739 1103.15C-2.72135 1097.2 -4.48184 1090.79 -6.66238 1087.43C-8.62054 1084.41 -11.0235 1083.18 -19.7456 1081.79C-22.0435 1081.41 -35.3367 1077.78 -39.5063 1076.41C-49.5318 1073.09 -54.7948 1066.4 -55.8202 1067.29C-57.6486 1068.87 -44.9978 1085.52 -42.076 1089.37C-34.8796 1098.85 -32.5508 1100.1 -30.8212 1100.75C-28.9372 1101.45 -26.1328 1102.06 -24.4958 1104.61C-22.9762 1106.98 -24.1561 1108.38 -22.7292 1110.2C-20.8081 1112.63 -17.8554 1111.11 -12.8272 1113.41C-11.1285 1114.18 -8.58965 1115.34 -6.99595 1117.8C-5.67403 1119.84 -5.76669 1123.12 -6.0076 1129.6C-6.37205 1139.41 -6.42765 1140.29 -5.53196 1141.41C-3.23406 1144.29 0.731675 1142.88 5.48191 1146.63C6.56291 1147.48 8.28016 1150.26 9.34263 1153.16C11.1217 1158.02 9.15732 1161.4 10.8437 1164.92C12.1779 1167.72 13.7161 1167.62 18.2377 1169.77C21.4437 1171.3 25.0264 1173.49 26.6263 1172.08C26.8734 1171.87 26.9846 1171.62 27.0525 1171.48C31.4074 1161.71 29.4555 1154.4 29.4555 1154.4C28.8933 1152.3 29.0787 1153 27.1946 1149.35L27.2008 1149.34Z" fill="#147F5E"/>
<path id="Vector_66" d="M29.9867 1185.98C24.0937 1165.53 16.5699 1145.63 6.71735 1126.89C-2.33836 1109.68 -14.2294 1092.74 -31.3586 1085.08C-22.1609 1090.53 -14.0503 1098.06 -7.74337 1107.02C-3.29582 1113.34 0.237512 1120.31 3.54847 1127.35C11.3379 1143.9 18.003 1161.02 23.4883 1178.53C26.2619 1187.38 28.7266 1196.32 30.8947 1205.33C31.9757 1209.84 32.9826 1214.37 33.9092 1218.91C34.3539 1221.09 34.7802 1223.28 35.1879 1225.47C35.5029 1227.15 35.4844 1231.28 36.4542 1232.61C36.4912 1232.66 36.726 1233.43 36.7754 1233.56C38.1097 1233.27 39.4192 1232.7 40.7164 1232.24C37.8502 1216.68 34.3725 1201.18 29.9929 1185.98H29.9867Z" fill="#507264"/>
</g>
<g id="Group_10">
<path id="Vector_67" d="M45.4049 1150.37C46.838 1147.59 50.1861 1144.55 50.8099 1143.9C51.6871 1142.98 52.5828 1139.5 53.114 1137.82C53.8491 1135.5 54.6151 1126.06 54.7571 1122.46C54.9363 1118.03 54.8683 1115.7 56.1347 1113.77C58.2164 1110.61 59.6186 1109.69 66.1169 1108.51C70.7807 1107.67 72.152 1108.51 73.4925 1104.18C75.3271 1098.24 77.0876 1091.82 79.2681 1088.46C81.2263 1085.44 83.6292 1084.21 92.3513 1082.82C94.6492 1082.45 107.942 1078.81 112.112 1077.44C122.138 1074.13 127.401 1067.44 128.426 1068.32C130.254 1069.9 117.604 1086.55 114.682 1090.4C107.485 1099.88 105.157 1101.13 103.427 1101.78C101.543 1102.49 98.7385 1103.09 97.1016 1105.64C95.582 1108.01 96.7618 1109.42 95.3349 1111.23C93.4138 1113.67 90.4611 1112.14 85.4329 1114.44C83.7342 1115.22 81.1954 1116.37 79.6017 1118.84C78.2798 1120.87 78.3724 1124.15 78.6133 1130.63C78.9778 1140.44 79.0334 1141.32 78.1377 1142.44C75.8398 1145.32 71.8741 1143.91 67.1238 1147.66C66.0428 1148.51 64.3256 1151.29 63.2631 1154.19C61.4841 1159.05 63.4484 1162.43 61.762 1165.96C60.4278 1168.75 58.8897 1168.65 54.368 1170.8C51.162 1172.33 47.5793 1174.52 45.9794 1173.11C45.7323 1172.9 45.6211 1172.65 45.5532 1172.51C41.1983 1162.74 43.1503 1155.44 43.1503 1155.44C43.7124 1153.33 43.5271 1154.03 45.4111 1150.38L45.4049 1150.37Z" fill="#147F5E"/>
<path id="Vector_68" d="M42.619 1187.01C48.512 1166.55 56.0358 1146.65 65.8883 1127.92C74.9441 1110.7 86.8351 1093.77 103.964 1086.1C94.7666 1091.55 86.656 1099.09 80.3491 1108.04C75.9015 1114.36 72.3682 1121.33 69.0572 1128.37C61.2678 1144.92 54.6027 1162.05 49.1174 1179.56C46.3438 1188.4 43.8791 1197.34 41.711 1206.36C40.63 1210.87 39.6231 1215.4 38.6965 1219.94C38.2517 1222.12 37.8255 1224.3 37.4178 1226.49C37.1028 1228.18 37.1213 1232.3 36.1515 1233.63C36.1145 1233.68 35.8797 1234.45 35.8303 1234.58C34.496 1234.29 33.1865 1233.73 31.8893 1233.26C34.7555 1217.71 38.2332 1202.2 42.6128 1187.01H42.619Z" fill="#507264"/>
</g>
<g id="Group_11">
<path id="Vector_69" d="M36.3122 1190.5C36.3122 1184.33 45.4852 1187.36 49.1607 1180.22C53.3858 1172.01 55.3255 1173.02 56.8698 1161.2C57.3022 1157.86 56.8389 1154.24 56.3756 1150.95C55.727 1146.3 53.0152 1142.77 51.8724 1138.33C51.5512 1137.09 51.44 1135.73 51.9836 1134.58C53.3488 1131.65 57.1107 1133.58 59.4394 1132.42C64.6097 1129.84 67.7168 1123.91 67.0435 1118.21C66.4814 1113.41 63.4299 1109.04 59.2665 1106.59C58.7476 1106.29 58.204 1106 57.8149 1105.54C55.8567 1103.18 65.6907 1098.57 67.1424 1097.47C71.7011 1094.01 72.9489 1091.16 73.826 1088.73C75.673 1083.6 75.4939 1079.15 75.3703 1075.89C75.1603 1070.51 74.104 1069.83 74.3449 1065.09C74.4067 1063.81 74.6847 1059.89 76.4019 1055.33C79.1075 1048.14 83.4933 1044.42 83.0856 1044.02C82.542 1043.49 76.3772 1051.68 65.6104 1057.9C55.8258 1063.56 51.7304 1065.1 47.6225 1068.18C45.5347 1069.75 41.5195 1071.28 39.9134 1077.44C39.4502 1079.22 38.3692 1085.66 38.888 1088.74C39.6231 1093.15 40.2594 1099.11 39.4007 1101.08C38.6101 1102.89 37.4179 1102.62 31.6917 1104.67C28.6772 1105.75 24.9894 1106.61 22.9201 1109.24C20.9496 1111.75 20.9866 1115.33 21.8514 1118.4C22.7965 1121.76 24.2914 1125.05 25.5207 1128.32C26.7994 1131.72 29.5235 1133.32 28.6216 1137.52C28.0039 1140.4 25.9963 1142.76 23.9146 1144.84C21.0484 1147.7 17.441 1150.8 16.7862 1155.05C15.8843 1160.91 17.4904 1166.72 20.1157 1171.94C21.4438 1174.58 23.0127 1177.08 24.6744 1179.52C26.1816 1181.74 27.1514 1184.42 29.8014 1185.53C30.345 1185.76 30.9257 1185.91 31.389 1186.28C32.192 1186.9 32.0252 1188.02 32.0808 1188.92C32.0994 1189.21 32.1364 1189.5 32.2723 1189.75C32.6368 1190.41 36.3122 1191.66 36.3122 1190.51V1190.5Z" fill="#5DB6A0"/>
<path id="Vector_70" d="M34.3108 1157.62C36.1886 1137.67 39.7776 1117.93 45.8682 1098.85C51.4709 1081.32 59.9151 1063.54 75.2653 1053.39C67.2783 1060.07 60.7552 1068.5 56.2706 1077.9C53.1079 1084.53 50.9706 1091.61 49.0618 1098.7C44.5772 1115.4 41.3033 1132.41 39.2587 1149.57C38.2271 1158.23 37.5105 1166.94 37.109 1175.65C36.9114 1180.01 36.7878 1184.38 36.7446 1188.74C36.726 1190.83 36.7199 1192.92 36.7446 1195.02C36.7569 1196.64 37.5661 1200.44 36.8681 1201.84C36.8434 1201.9 36.7631 1202.65 36.7322 1202.78C35.3671 1202.75 33.971 1202.46 32.6121 1202.27C32.4576 1187.39 32.9147 1172.44 34.3108 1157.62V1157.62Z" fill="#3C837C"/>
</g>
</g>
</g>
<defs>
<linearGradient id="paint0_linear_3_365" x1="1086.5" y1="0" x2="1086.5" y2="1194" gradientUnits="userSpaceOnUse">
<stop offset="0.0255469" stop-color="#EDF2CD"/>
<stop offset="0.547298" stop-color="#9EDCE0"/>
</linearGradient>
<linearGradient id="paint1_linear_3_365" x1="171.879" y1="255.777" x2="174.722" y2="465.759" gradientUnits="userSpaceOnUse">
<stop offset="0.03" stop-color="#E3E660"/>
<stop offset="0.44" stop-color="#E4EEBF"/>
</linearGradient>
<linearGradient id="paint2_linear_3_365" x1="-47.7554" y1="205" x2="-47.7554" y2="625.272" gradientUnits="userSpaceOnUse">
<stop stop-color="#B8E1D4"/>
<stop offset="1" stop-color="#6BBEA4"/>
</linearGradient>
<linearGradient id="paint3_linear_3_365" x1="-22.4046" y1="379.799" x2="-25.5997" y2="667.08" gradientUnits="userSpaceOnUse">
<stop stop-color="#64B5B8"/>
<stop offset="1" stop-color="#026B6F"/>
</linearGradient>
<linearGradient id="paint4_linear_3_365" x1="613.381" y1="399" x2="613.381" y2="656.486" gradientUnits="userSpaceOnUse">
<stop offset="0.0840499" stop-color="#B4DDD4"/>
<stop offset="1" stop-color="#28BA98"/>
</linearGradient>
<linearGradient id="paint5_linear_3_365" x1="398.5" y1="463" x2="398.5" y2="703.019" gradientUnits="userSpaceOnUse">
<stop stop-color="#8BC49B"/>
<stop offset="1" stop-color="#279846"/>
</linearGradient>
<linearGradient id="paint6_linear_3_365" x1="388.847" y1="807.043" x2="584.202" y2="1242.55" gradientUnits="userSpaceOnUse">
<stop offset="0.42" stop-color="#E3D5A5"/>
<stop offset="0.87" stop-color="#F1BBA3"/>
</linearGradient>
<clipPath id="clip0_3_365">
<rect width="834" height="1194" fill="white"/>
</clipPath>
<clipPath id="clip1_3_365">
<rect width="2173" height="1194" fill="white" transform="translate(-670)"/>
</clipPath>
</defs>
</svg>
